{"glyphs":{" ":{"ha":278,"x_min":0,"x_max":0,"o":""}," ":{"ha":278,"x_min":0,"x_max":0,"o":""},"A":{"ha":988,"x_min":0,"x_max":0,"o":"m 267 972 l 35 0 l 354 0 l 354 53 b 406 147 354 121 376 147 l 471 147 b 528 67 511 147 517 124 b 540 0 531 43 535 21 l 953 0 l 721 972 z m 418 586 b 507 592 432 654 499 650 b 522 379 517 513 521 442 b 458 319 522 325 511 319 b 386 397 392 319 376 335 z "},"Á":{"ha":988,"x_min":0,"x_max":0,"o":"m 267 972 l 35 0 l 354 0 l 354 53 b 406 147 354 121 376 147 l 471 147 b 528 67 511 147 517 124 b 540 0 531 43 535 21 l 953 0 l 721 972 z m 449 1104 l 560 1192 b 563 1231 575 1204 575 1218 l 524 1269 b 485 1267 511 1282 496 1282 l 396 1156 b 399 1117 385 1142 386 1128 l 410 1106 b 449 1104 422 1094 436 1094 z m 418 586 b 507 592 432 654 499 650 b 522 379 517 513 521 442 b 458 319 522 325 511 319 b 386 397 392 319 376 335 z "},"Ă":{"ha":988,"x_min":0,"x_max":0,"o":"m 267 972 l 35 0 l 354 0 l 354 53 b 406 147 354 121 376 147 l 471 147 b 528 67 511 147 517 124 b 540 0 531 43 535 21 l 953 0 l 721 972 z m 482 1088 b 611 1156 533 1088 569 1113 b 611 1200 628 1172 626 1189 l 583 1218 b 544 1208 568 1228 556 1224 b 482 1169 525 1179 508 1169 b 419 1208 456 1169 439 1179 b 381 1218 408 1224 396 1228 l 353 1200 b 349 1161 338 1189 335 1175 b 482 1088 390 1114 429 1088 z m 418 586 b 507 592 432 654 499 650 b 522 379 517 513 521 442 b 458 319 522 325 511 319 b 386 397 392 319 376 335 z "},"Â":{"ha":988,"x_min":0,"x_max":0,"o":"m 267 972 l 35 0 l 354 0 l 354 53 b 406 147 354 121 376 147 l 471 147 b 528 67 511 147 517 124 b 540 0 531 43 535 21 l 953 0 l 721 972 z m 568 1106 l 599 1132 b 600 1171 613 1144 614 1158 l 501 1258 b 463 1258 488 1271 476 1271 l 364 1171 b 365 1132 350 1158 351 1144 l 396 1106 b 435 1111 410 1093 425 1096 l 463 1151 b 501 1151 474 1168 490 1168 l 529 1111 b 568 1106 539 1096 554 1093 z m 418 586 b 507 592 432 654 499 650 b 522 379 517 513 521 442 b 458 319 522 325 511 319 b 386 397 392 319 376 335 z "},"Ä":{"ha":988,"x_min":0,"x_max":0,"o":"m 267 972 l 35 0 l 354 0 l 354 53 b 406 147 354 121 376 147 l 471 147 b 528 67 511 147 517 124 b 540 0 531 43 535 21 l 953 0 l 721 972 z m 399 1088 b 468 1157 438 1088 468 1118 b 399 1226 468 1196 438 1226 b 329 1157 360 1226 329 1196 b 399 1088 329 1118 360 1088 z m 565 1088 b 635 1157 604 1088 635 1118 b 565 1226 635 1196 604 1226 b 496 1157 526 1226 496 1196 b 565 1088 496 1118 526 1088 z m 418 586 b 507 592 432 654 499 650 b 522 379 517 513 521 442 b 458 319 522 325 511 319 b 386 397 392 319 376 335 z "},"À":{"ha":988,"x_min":0,"x_max":0,"o":"m 267 972 l 35 0 l 354 0 l 354 53 b 406 147 354 121 376 147 l 471 147 b 528 67 511 147 517 124 b 540 0 531 43 535 21 l 953 0 l 721 972 z m 553 1106 l 564 1117 b 567 1156 576 1128 578 1142 l 478 1267 b 439 1269 467 1282 451 1282 l 400 1231 b 403 1192 388 1218 388 1204 l 514 1104 b 553 1106 526 1094 540 1094 z m 418 586 b 507 592 432 654 499 650 b 522 379 517 513 521 442 b 458 319 522 325 511 319 b 386 397 392 319 376 335 z "},"Ā":{"ha":988,"x_min":0,"x_max":0,"o":"m 267 972 l 35 0 l 354 0 l 354 53 b 406 147 354 121 376 147 l 471 147 b 528 67 511 147 517 124 b 540 0 531 43 535 21 l 953 0 l 721 972 z m 390 1101 l 574 1101 b 601 1129 592 1101 601 1111 l 601 1143 b 574 1171 601 1161 592 1171 l 390 1171 b 363 1143 372 1171 363 1161 l 363 1129 b 390 1101 363 1111 372 1101 z m 418 586 b 507 592 432 654 499 650 b 522 379 517 513 521 442 b 458 319 522 325 511 319 b 386 397 392 319 376 335 z "},"Ą":{"ha":988,"x_min":0,"x_max":0,"o":"m 267 972 l 35 0 l 354 0 l 354 53 b 406 147 354 121 376 147 l 471 147 b 528 67 511 147 517 124 b 540 0 531 43 535 21 l 871 0 b 822 -117 839 -44 822 -85 b 925 -192 822 -160 849 -192 b 964 -164 954 -192 964 -182 l 964 -137 b 925 -110 964 -119 954 -110 b 879 -76 889 -110 879 -96 b 913 0 879 -57 893 -29 l 953 0 l 942 44 b 942 49 943 46 942 47 l 721 972 z m 418 586 b 507 592 432 654 499 650 b 522 379 517 513 521 442 b 458 319 522 325 511 319 b 386 397 392 319 376 335 z "},"Å":{"ha":988,"x_min":0,"x_max":0,"o":"m 267 972 l 35 0 l 354 0 l 354 53 b 406 147 354 121 376 147 l 471 147 b 528 67 511 147 517 124 b 540 0 531 43 535 21 l 953 0 l 721 972 z m 482 1088 b 590 1197 542 1088 590 1136 b 482 1306 590 1257 542 1306 b 372 1197 421 1306 372 1257 b 482 1088 372 1136 421 1088 z m 482 1139 b 424 1197 450 1139 424 1165 b 482 1254 424 1228 450 1254 b 539 1197 513 1254 539 1228 b 482 1139 539 1165 513 1139 z m 418 586 b 507 592 432 654 499 650 b 522 379 517 513 521 442 b 458 319 522 325 511 319 b 386 397 392 319 376 335 z "},"Ã":{"ha":988,"x_min":0,"x_max":0,"o":"m 267 972 l 35 0 l 354 0 l 354 53 b 406 147 354 121 376 147 l 471 147 b 528 67 511 147 517 124 b 540 0 531 43 535 21 l 953 0 l 721 972 z m 546 1088 b 638 1167 579 1088 621 1093 b 617 1240 649 1214 635 1240 l 590 1240 b 561 1213 574 1240 565 1231 b 531 1175 557 1189 546 1175 b 415 1264 489 1175 494 1264 b 319 1142 378 1264 326 1256 b 346 1111 318 1122 328 1111 l 371 1111 b 400 1139 388 1111 396 1121 b 432 1176 404 1163 417 1176 b 546 1088 474 1176 468 1088 z m 418 586 b 507 592 432 654 499 650 b 522 379 517 513 521 442 b 458 319 522 325 511 319 b 386 397 392 319 376 335 z "},"Æ":{"ha":1415,"x_min":0,"x_max":0,"o":"m 267 972 l 35 0 l 354 0 l 354 53 b 406 147 354 121 376 147 l 471 147 b 528 67 511 147 517 124 b 540 0 531 43 535 21 l 1372 0 l 1374 381 b 950 307 1188 381 1094 325 b 867 371 897 301 867 332 l 867 389 b 926 429 867 408 878 429 l 1232 429 l 1232 554 l 926 554 b 867 594 878 554 867 575 l 867 601 b 938 671 867 643 889 675 b 1303 614 1057 660 1121 617 l 1303 972 z m 418 586 b 507 592 432 654 499 650 b 522 379 517 513 521 442 b 458 319 522 325 511 319 b 386 397 392 319 376 335 z "},"B":{"ha":1022,"x_min":0,"x_max":0,"o":"m 361 972 l 42 972 l 42 0 l 361 0 b 981 289 775 0 981 33 b 765 544 981 392 922 524 b 881 726 832 590 881 649 b 361 972 881 963 714 972 z m 361 221 l 361 325 b 443 396 361 351 394 374 b 661 335 626 469 663 399 b 361 221 661 203 446 219 z m 361 517 l 361 682 b 638 657 408 728 638 746 b 361 517 638 554 442 547 z "},"C":{"ha":921,"x_min":0,"x_max":0,"o":"m 886 676 l 886 897 b 501 988 785 957 679 988 b 35 485 156 988 35 814 b 501 -15 35 158 156 -15 b 886 75 679 -15 810 31 l 886 490 l 689 454 b 163 569 278 379 163 475 b 561 614 163 667 356 718 b 886 676 699 544 886 542 z "},"Ć":{"ha":921,"x_min":0,"x_max":0,"o":"m 886 676 l 886 897 b 501 988 785 957 679 988 b 35 485 156 988 35 814 b 501 -15 35 158 156 -15 b 886 75 679 -15 810 31 l 886 490 l 689 454 b 163 569 278 379 163 475 b 561 614 163 667 356 718 b 886 676 699 544 886 542 z m 468 1146 l 579 1233 b 582 1272 594 1246 594 1260 l 543 1311 b 504 1308 531 1324 515 1324 l 415 1197 b 418 1158 404 1183 406 1169 l 429 1147 b 468 1146 442 1136 456 1136 z "},"Č":{"ha":921,"x_min":0,"x_max":0,"o":"m 886 676 l 886 897 b 501 988 785 957 679 988 b 35 485 156 988 35 814 b 501 -15 35 158 156 -15 b 886 75 679 -15 810 31 l 886 490 l 689 454 b 163 569 278 379 163 475 b 561 614 163 667 356 718 b 886 676 699 544 886 542 z m 521 1146 l 619 1233 b 618 1272 633 1246 632 1260 l 588 1299 b 549 1293 574 1311 558 1308 l 521 1253 b 482 1253 510 1236 493 1236 l 454 1293 b 415 1297 444 1308 429 1310 l 385 1272 b 383 1233 371 1260 369 1246 l 482 1146 b 521 1146 496 1133 507 1133 z "},"Ç":{"ha":921,"x_min":0,"x_max":0,"o":"m 886 676 l 886 897 b 501 988 785 957 679 988 b 35 485 156 988 35 814 b 475 -15 35 167 149 -6 l 468 -65 b 499 -94 465 -90 471 -93 b 544 -119 532 -96 544 -107 b 485 -144 544 -132 529 -144 b 453 -172 458 -144 453 -153 l 453 -185 b 485 -212 453 -204 458 -212 b 608 -125 572 -212 608 -172 b 540 -56 608 -87 586 -64 b 515 -25 521 -53 513 -43 l 517 -15 b 886 75 686 -12 813 32 l 886 490 l 689 454 b 163 569 278 379 163 475 b 561 614 163 667 356 718 b 886 676 699 544 886 542 z "},"Ċ":{"ha":921,"x_min":0,"x_max":0,"o":"m 886 676 l 886 897 b 501 988 785 957 679 988 b 35 485 156 988 35 814 b 501 -15 35 158 156 -15 b 886 75 679 -15 810 31 l 886 490 l 689 454 b 163 569 278 379 163 475 b 561 614 163 667 356 718 b 886 676 699 544 886 542 z m 501 1129 b 571 1199 540 1129 571 1160 b 501 1268 571 1238 540 1268 b 432 1199 463 1268 432 1238 b 501 1129 432 1160 463 1129 z "},"D":{"ha":975,"x_min":0,"x_max":0,"o":"m 358 985 l 42 972 l 42 0 l 361 0 b 933 564 717 0 933 171 b 358 985 933 890 725 1011 z m 446 867 b 631 643 532 867 631 822 b 428 278 631 349 528 278 b 363 311 375 278 363 289 l 363 786 b 446 867 363 832 385 867 z "},"Ď":{"ha":975,"x_min":0,"x_max":0,"o":"m 358 985 l 42 972 l 42 0 l 361 0 b 933 564 717 0 933 171 b 358 985 933 890 725 1011 z m 446 867 b 631 643 532 867 631 822 b 428 278 631 349 528 278 b 363 311 375 278 363 289 l 363 786 b 446 867 363 832 385 867 z m 471 1135 l 569 1222 b 568 1261 583 1235 582 1249 l 538 1288 b 499 1282 524 1300 508 1297 l 471 1242 b 432 1242 460 1225 443 1225 l 404 1282 b 365 1286 394 1297 379 1299 l 335 1261 b 333 1222 321 1249 319 1235 l 432 1135 b 471 1135 446 1122 457 1122 z "},"Đ":{"ha":1057,"x_min":0,"x_max":0,"o":"m 440 985 l 124 972 l 124 660 l 42 660 l 42 476 l 124 476 l 124 0 l 443 0 b 1015 564 799 0 1015 171 b 440 985 1015 890 807 1011 z m 528 867 b 713 643 614 867 713 822 b 510 278 713 349 610 278 b 444 311 457 278 444 289 l 444 476 l 547 476 l 547 660 l 444 660 l 444 786 b 528 867 444 832 467 867 z "},"Ð":{"ha":1057,"x_min":0,"x_max":0,"o":"m 440 985 l 124 972 l 124 660 l 42 660 l 42 476 l 124 476 l 124 0 l 443 0 b 1015 564 799 0 1015 171 b 440 985 1015 890 807 1011 z m 528 867 b 713 643 614 867 713 822 b 510 278 713 349 610 278 b 444 311 457 278 444 289 l 444 476 l 547 476 l 547 660 l 444 660 l 444 786 b 528 867 444 832 467 867 z "},"E":{"ha":889,"x_min":0,"x_max":0,"o":"m 42 972 l 42 0 l 846 0 l 847 381 b 424 307 661 381 568 325 b 340 371 371 301 340 332 l 340 389 b 400 429 340 408 351 429 l 706 429 l 706 554 l 400 554 b 340 594 351 554 340 575 l 340 601 b 411 671 340 643 363 675 b 776 614 531 660 594 617 l 776 972 z "},"É":{"ha":889,"x_min":0,"x_max":0,"o":"m 42 972 l 42 0 l 846 0 l 847 381 b 424 307 661 381 568 325 b 340 371 371 301 340 332 l 340 389 b 400 429 340 408 351 429 l 706 429 l 706 554 l 400 554 b 340 594 351 554 340 575 l 340 601 b 411 671 340 643 363 675 b 776 614 531 660 594 617 l 776 972 z m 411 1118 l 522 1206 b 525 1244 538 1218 538 1232 l 486 1283 b 447 1281 474 1296 458 1296 l 358 1169 b 361 1131 347 1156 349 1142 l 372 1119 b 411 1118 385 1108 399 1108 z "},"Ě":{"ha":889,"x_min":0,"x_max":0,"o":"m 42 972 l 42 0 l 846 0 l 847 381 b 424 307 661 381 568 325 b 340 371 371 301 340 332 l 340 389 b 400 429 340 408 351 429 l 706 429 l 706 554 l 400 554 b 340 594 351 554 340 575 l 340 601 b 411 671 340 643 363 675 b 776 614 531 660 594 617 l 776 972 z m 464 1118 l 563 1206 b 561 1244 576 1218 575 1232 l 531 1271 b 492 1265 517 1283 501 1281 l 464 1225 b 425 1225 453 1208 436 1208 l 397 1265 b 358 1269 388 1281 372 1282 l 328 1244 b 326 1206 314 1232 313 1218 l 425 1118 b 464 1118 439 1106 450 1106 z "},"Ê":{"ha":889,"x_min":0,"x_max":0,"o":"m 42 972 l 42 0 l 846 0 l 847 381 b 424 307 661 381 568 325 b 340 371 371 301 340 332 l 340 389 b 400 429 340 408 351 429 l 706 429 l 706 554 l 400 554 b 340 594 351 554 340 575 l 340 601 b 411 671 340 643 363 675 b 776 614 531 660 594 617 l 776 972 z m 531 1119 l 561 1146 b 563 1185 575 1158 576 1172 l 464 1272 b 425 1272 450 1285 439 1285 l 326 1185 b 328 1146 313 1172 314 1158 l 358 1119 b 397 1125 372 1107 388 1110 l 425 1165 b 464 1165 436 1182 453 1182 l 492 1125 b 531 1119 501 1110 517 1107 z "},"Ë":{"ha":889,"x_min":0,"x_max":0,"o":"m 42 972 l 42 0 l 846 0 l 847 381 b 424 307 661 381 568 325 b 340 371 371 301 340 332 l 340 389 b 400 429 340 408 351 429 l 706 429 l 706 554 l 400 554 b 340 594 351 554 340 575 l 340 601 b 411 671 340 643 363 675 b 776 614 531 660 594 617 l 776 972 z m 361 1101 b 431 1171 400 1101 431 1132 b 361 1240 431 1210 400 1240 b 292 1171 322 1240 292 1210 b 361 1101 292 1132 322 1101 z m 528 1101 b 597 1171 567 1101 597 1132 b 528 1240 597 1210 567 1240 b 458 1171 489 1240 458 1210 b 528 1101 458 1132 489 1101 z "},"Ė":{"ha":889,"x_min":0,"x_max":0,"o":"m 42 972 l 42 0 l 846 0 l 847 381 b 424 307 661 381 568 325 b 340 371 371 301 340 332 l 340 389 b 400 429 340 408 351 429 l 706 429 l 706 554 l 400 554 b 340 594 351 554 340 575 l 340 601 b 411 671 340 643 363 675 b 776 614 531 660 594 617 l 776 972 z m 444 1101 b 514 1171 483 1101 514 1132 b 444 1240 514 1210 483 1240 b 375 1171 406 1240 375 1210 b 444 1101 375 1132 406 1101 z "},"È":{"ha":889,"x_min":0,"x_max":0,"o":"m 42 972 l 42 0 l 846 0 l 847 381 b 424 307 661 381 568 325 b 340 371 371 301 340 332 l 340 389 b 400 429 340 408 351 429 l 706 429 l 706 554 l 400 554 b 340 594 351 554 340 575 l 340 601 b 411 671 340 643 363 675 b 776 614 531 660 594 617 l 776 972 z m 515 1119 l 526 1131 b 529 1169 539 1142 540 1156 l 440 1281 b 401 1283 429 1296 414 1296 l 363 1244 b 365 1206 350 1232 350 1218 l 476 1118 b 515 1119 489 1108 503 1108 z "},"Ē":{"ha":889,"x_min":0,"x_max":0,"o":"m 42 972 l 42 0 l 846 0 l 847 381 b 424 307 661 381 568 325 b 340 371 371 301 340 332 l 340 389 b 400 429 340 408 351 429 l 706 429 l 706 554 l 400 554 b 340 594 351 554 340 575 l 340 601 b 411 671 340 643 363 675 b 776 614 531 660 594 617 l 776 972 z m 353 1115 l 536 1115 b 564 1143 554 1115 564 1125 l 564 1157 b 536 1185 564 1175 554 1185 l 353 1185 b 325 1157 335 1185 325 1175 l 325 1143 b 353 1115 325 1125 335 1115 z "},"Ę":{"ha":889,"x_min":0,"x_max":0,"o":"m 42 972 l 42 0 l 774 0 b 725 -117 742 -44 725 -85 b 828 -192 725 -160 751 -192 b 867 -164 857 -192 867 -182 l 867 -137 b 828 -110 867 -119 857 -110 b 782 -76 792 -110 782 -96 b 815 0 782 -57 796 -29 l 846 0 l 847 381 b 424 307 661 381 568 325 b 340 371 371 301 340 332 l 340 389 b 400 429 340 408 351 429 l 706 429 l 706 554 l 400 554 b 340 594 351 554 340 575 l 340 601 b 411 671 340 643 363 675 b 776 614 531 660 594 617 l 776 972 z "},"Ẽ":{"ha":889,"x_min":0,"x_max":0,"o":"m 42 972 l 42 0 l 846 0 l 847 381 b 424 307 661 381 568 325 b 340 371 371 301 340 332 l 340 389 b 400 429 340 408 351 429 l 706 429 l 706 554 l 400 554 b 340 594 351 554 340 575 l 340 601 b 411 671 340 643 363 675 b 776 614 531 660 594 617 l 776 972 z m 508 1101 b 600 1181 542 1101 583 1107 b 579 1254 611 1228 597 1254 l 553 1254 b 524 1226 536 1254 528 1244 b 493 1189 519 1203 508 1189 b 378 1278 451 1189 457 1278 b 282 1156 340 1278 289 1269 b 308 1125 281 1136 290 1125 l 333 1125 b 363 1153 350 1125 358 1135 b 394 1190 367 1176 379 1190 b 508 1101 436 1190 431 1101 z "},"Ə":{"ha":929,"x_min":0,"x_max":0,"o":"m 121 957 l 121 665 b 618 522 242 729 618 743 b 351 604 618 471 567 604 b 35 322 115 604 35 490 b 421 -14 35 89 236 -14 b 894 472 779 -14 894 207 b 121 957 894 883 614 1040 z m 603 325 b 436 251 603 278 543 251 b 271 325 335 251 271 278 b 443 407 271 385 335 407 b 603 325 542 407 603 379 z "},"F":{"ha":818,"x_min":0,"x_max":0,"o":"m 42 972 l 42 0 l 472 0 b 342 332 472 129 375 249 b 365 374 338 347 343 374 l 608 336 l 608 563 l 400 563 b 340 603 351 563 340 583 l 342 626 b 411 671 346 658 368 674 b 776 614 531 660 593 617 l 776 972 z "},"G":{"ha":1000,"x_min":0,"x_max":0,"o":"m 839 671 l 839 925 b 501 988 746 972 642 988 b 35 485 156 988 35 814 b 501 -15 35 158 221 -15 b 963 281 740 -15 992 72 b 661 465 943 418 818 450 l 840 465 b 913 628 954 465 925 593 l 478 603 b 404 525 429 600 404 574 l 404 465 l 426 465 b 439 389 631 463 583 389 b 163 538 256 389 163 443 b 501 693 163 628 257 693 b 839 671 711 693 785 682 z "},"Ğ":{"ha":1000,"x_min":0,"x_max":0,"o":"m 839 671 l 839 925 b 501 988 746 972 642 988 b 35 485 156 988 35 814 b 501 -15 35 158 221 -15 b 963 281 740 -15 992 72 b 661 465 943 418 818 450 l 840 465 b 913 628 954 465 925 593 l 478 603 b 404 525 429 600 404 574 l 404 465 l 426 465 b 439 389 631 463 583 389 b 163 538 256 389 163 443 b 501 693 163 628 257 693 b 839 671 711 693 785 682 z m 499 1118 b 628 1186 550 1118 586 1143 b 628 1231 644 1203 643 1219 l 600 1249 b 561 1239 585 1258 572 1254 b 499 1200 542 1210 525 1200 b 436 1239 472 1200 456 1210 b 397 1249 425 1254 413 1258 l 369 1231 b 365 1192 354 1219 351 1206 b 499 1118 407 1144 446 1118 z "},"Ģ":{"ha":1000,"x_min":0,"x_max":0,"o":"m 839 671 l 839 925 b 501 988 746 972 642 988 b 35 485 156 988 35 814 b 501 -15 35 158 221 -15 b 963 281 740 -15 992 72 b 661 465 943 418 818 450 l 840 465 b 913 628 954 465 925 593 l 478 603 b 404 525 429 600 404 574 l 404 465 l 426 465 b 439 389 631 463 583 389 b 163 538 256 389 163 443 b 501 693 163 628 257 693 b 839 671 711 693 785 682 z m 556 -218 l 608 -86 b 592 -50 615 -69 610 -54 l 539 -36 b 506 -58 521 -31 508 -39 l 485 -199 b 507 -231 482 -217 490 -226 l 521 -235 b 556 -218 538 -239 550 -233 z "},"Ġ":{"ha":1000,"x_min":0,"x_max":0,"o":"m 839 671 l 839 925 b 501 988 746 972 642 988 b 35 485 156 988 35 814 b 501 -15 35 158 221 -15 b 963 281 740 -15 992 72 b 661 465 943 418 818 450 l 840 465 b 913 628 954 465 925 593 l 478 603 b 404 525 429 600 404 574 l 404 465 l 426 465 b 439 389 631 463 583 389 b 163 538 256 389 163 443 b 501 693 163 628 257 693 b 839 671 711 693 785 682 z m 499 1118 b 568 1188 538 1118 568 1149 b 499 1257 568 1226 538 1257 b 429 1188 460 1257 429 1226 b 499 1118 429 1149 460 1118 z "},"H":{"ha":890,"x_min":0,"x_max":0,"o":"m 849 972 l 631 972 b 483 865 563 972 479 933 b 506 642 489 782 497 711 b 465 582 510 597 504 582 l 404 581 b 354 615 369 582 358 589 b 346 865 349 686 346 768 b 261 972 346 935 329 972 l 42 972 l 42 0 l 260 0 b 407 107 328 0 411 39 b 386 319 403 186 394 254 b 429 413 383 351 386 404 l 479 411 b 538 346 514 411 532 388 l 539 319 b 544 107 543 257 544 188 b 629 0 544 38 561 0 l 849 0 z "},"I":{"ha":403,"x_min":0,"x_max":0,"o":"m 42 972 l 42 0 l 361 0 l 361 972 z "},"Ĳ":{"ha":1326,"x_min":0,"x_max":0,"o":"m 42 972 l 42 0 l 361 0 l 361 972 z m 1253 972 l 571 972 l 571 614 b 838 672 725 624 751 663 b 900 622 876 675 890 651 b 957 354 925 546 957 478 b 782 319 957 258 843 271 b 444 458 688 394 574 557 l 444 0 b 1253 972 1331 -112 1331 149 z "},"Í":{"ha":403,"x_min":0,"x_max":0,"o":"m 42 972 l 42 0 l 361 0 l 361 972 z m 169 1128 l 281 1215 b 283 1254 296 1228 296 1242 l 244 1293 b 206 1290 232 1306 217 1306 l 117 1179 b 119 1140 106 1165 107 1151 l 131 1129 b 169 1128 143 1118 157 1118 z "},"Î":{"ha":403,"x_min":0,"x_max":0,"o":"m 42 972 l 42 0 l 361 0 l 361 972 z m 289 1129 l 319 1156 b 321 1194 333 1168 335 1182 l 222 1282 b 183 1282 208 1294 197 1294 l 85 1194 b 86 1156 71 1182 72 1168 l 117 1129 b 156 1135 131 1117 146 1119 l 183 1175 b 222 1175 194 1192 211 1192 l 250 1135 b 289 1129 260 1119 275 1117 z "},"Ï":{"ha":403,"x_min":0,"x_max":0,"o":"m 42 972 l 42 0 l 361 0 l 361 972 z m 119 1111 b 189 1181 158 1111 189 1142 b 119 1250 189 1219 158 1250 b 50 1181 81 1250 50 1219 b 119 1111 50 1142 81 1111 z m 286 1111 b 356 1181 325 1111 356 1142 b 286 1250 356 1219 325 1250 b 217 1181 247 1250 217 1219 b 286 1111 217 1142 247 1111 z "},"İ":{"ha":403,"x_min":0,"x_max":0,"o":"m 42 972 l 42 0 l 361 0 l 361 972 z m 203 1111 b 272 1181 242 1111 272 1142 b 203 1250 272 1219 242 1250 b 133 1181 164 1250 133 1219 b 203 1111 133 1142 164 1111 z "},"Ì":{"ha":403,"x_min":0,"x_max":0,"o":"m 42 972 l 42 0 l 361 0 l 361 972 z m 274 1129 l 285 1140 b 288 1179 297 1151 299 1165 l 199 1290 b 160 1293 188 1306 172 1306 l 121 1254 b 124 1215 108 1242 108 1228 l 235 1128 b 274 1129 247 1118 261 1118 z "},"Ī":{"ha":403,"x_min":0,"x_max":0,"o":"m 42 972 l 42 0 l 361 0 l 361 972 z m 111 1125 l 294 1125 b 322 1153 313 1125 322 1135 l 322 1167 b 294 1194 322 1185 313 1194 l 111 1194 b 83 1167 93 1194 83 1185 l 83 1153 b 111 1125 83 1135 93 1125 z "},"Į":{"ha":403,"x_min":0,"x_max":0,"o":"m 42 972 l 42 0 l 286 0 b 242 -111 257 -42 242 -81 b 344 -186 242 -154 268 -186 b 383 -158 374 -186 383 -176 l 383 -132 b 344 -104 383 -114 374 -104 b 299 -71 308 -104 299 -90 b 329 0 299 -53 311 -28 l 361 0 l 361 47 b 361 53 363 50 363 51 l 361 972 z "},"Ĩ":{"ha":403,"x_min":0,"x_max":0,"o":"m 42 972 l 42 0 l 361 0 l 361 972 z m 267 1111 b 358 1190 300 1111 342 1117 b 338 1264 369 1238 356 1264 l 311 1264 b 282 1236 294 1264 286 1254 b 251 1199 278 1213 267 1199 b 136 1288 210 1199 215 1288 b 40 1165 99 1288 47 1279 b 67 1135 39 1146 49 1135 l 92 1135 b 121 1163 108 1135 117 1144 b 153 1200 125 1186 138 1200 b 267 1111 194 1200 189 1111 z "},"J":{"ha":924,"x_min":0,"x_max":0,"o":"m 850 972 l 168 972 l 168 614 b 435 672 322 624 349 663 b 497 622 474 675 488 651 b 554 354 522 546 554 478 b 379 319 554 258 440 271 b 42 458 285 394 171 557 l 42 0 b 850 972 928 -112 928 149 z "},"K":{"ha":1015,"x_min":0,"x_max":0,"o":"m 399 360 b 431 436 396 388 396 429 b 579 197 554 447 579 279 b 643 0 579 54 571 0 l 974 0 l 974 254 b 682 488 974 404 843 488 b 646 542 585 488 607 542 b 861 765 760 543 817 561 l 907 972 l 524 972 b 414 604 524 831 526 604 b 367 675 378 610 369 633 b 363 865 364 731 363 793 b 261 972 363 935 329 972 l 42 972 l 42 0 l 260 0 b 422 138 328 0 428 39 b 399 360 417 218 408 288 z "},"Ķ":{"ha":1015,"x_min":0,"x_max":0,"o":"m 399 360 b 431 436 396 388 396 429 b 579 197 554 447 579 279 b 643 0 579 54 571 0 l 974 0 l 974 254 b 682 488 974 404 843 488 b 646 542 585 488 607 542 b 861 765 760 543 817 561 l 907 972 l 524 972 b 414 604 524 831 526 604 b 367 675 378 610 369 633 b 363 865 364 731 363 793 b 261 972 363 935 329 972 l 42 972 l 42 0 l 260 0 b 422 138 328 0 428 39 b 399 360 417 218 408 288 z m 515 -215 l 568 -83 b 551 -47 575 -67 569 -51 l 499 -33 b 465 -56 481 -28 468 -36 l 444 -196 b 467 -228 442 -214 450 -224 l 481 -232 b 515 -215 497 -236 510 -231 z "},"L":{"ha":842,"x_min":0,"x_max":0,"o":"m 436 972 l 42 972 l 42 0 l 799 0 l 800 381 b 403 307 589 381 525 325 b 344 393 364 306 335 326 b 436 972 386 639 478 835 z "},"Ĺ":{"ha":842,"x_min":0,"x_max":0,"o":"m 436 972 l 42 972 l 42 0 l 799 0 l 800 381 b 403 307 589 381 525 325 b 344 393 364 306 335 326 b 436 972 386 639 478 835 z m 261 1110 l 372 1197 b 375 1236 388 1210 388 1224 l 336 1275 b 297 1272 324 1288 308 1288 l 208 1161 b 211 1122 197 1147 199 1133 l 222 1111 b 261 1110 235 1100 249 1100 z "},"Ľ":{"ha":842,"x_min":0,"x_max":0,"o":"m 436 972 l 42 972 l 42 0 l 799 0 l 800 381 b 403 307 589 381 525 325 b 344 393 364 306 335 326 b 436 972 386 639 478 835 z m 779 815 l 832 947 b 815 983 839 964 833 979 l 763 997 b 729 975 744 1003 732 994 l 708 835 b 731 803 706 817 714 807 l 744 799 b 779 815 761 794 774 800 z "},"Ļ":{"ha":842,"x_min":0,"x_max":0,"o":"m 436 972 l 42 972 l 42 0 l 799 0 l 800 381 b 403 307 589 381 525 325 b 344 393 364 306 335 326 b 436 972 386 639 478 835 z m 447 -215 l 500 -83 b 483 -47 507 -67 501 -51 l 431 -33 b 397 -56 413 -28 400 -36 l 376 -196 b 399 -228 374 -214 382 -224 l 413 -232 b 447 -215 429 -236 442 -231 z "},"Ł":{"ha":982,"x_min":0,"x_max":0,"o":"m 576 972 l 182 972 l 182 493 l 42 436 l 104 264 l 182 296 l 182 0 l 939 0 l 940 381 b 543 307 729 381 665 325 b 485 393 504 306 475 326 l 489 422 l 732 522 l 671 694 l 542 642 b 576 972 575 774 603 885 z "},"M":{"ha":1217,"x_min":0,"x_max":0,"o":"m 42 0 l 260 0 b 422 133 328 0 422 35 b 460 713 422 224 258 713 b 460 193 561 713 554 508 l 757 193 b 790 694 742 336 643 694 b 797 138 968 694 803 317 b 957 0 794 39 889 0 l 1175 0 l 1175 972 b 1026 992 1151 986 1094 992 b 624 735 826 992 700 883 b 297 972 558 874 460 972 l 42 972 z "},"N":{"ha":1079,"x_min":0,"x_max":0,"o":"m 42 0 l 260 0 b 436 133 328 0 436 35 b 349 674 436 301 197 674 b 635 0 564 674 324 0 l 1038 0 l 1038 972 l 868 972 b 719 514 444 972 939 514 b 396 972 539 514 774 972 l 42 972 z "},"Ń":{"ha":1079,"x_min":0,"x_max":0,"o":"m 42 0 l 260 0 b 436 133 328 0 436 35 b 349 674 436 301 197 674 b 635 0 564 674 324 0 l 1038 0 l 1038 972 l 868 972 b 719 514 444 972 939 514 b 396 972 539 514 774 972 l 42 972 z m 497 1132 l 608 1219 b 611 1258 624 1232 624 1246 l 572 1297 b 533 1294 560 1310 544 1310 l 444 1183 b 447 1144 433 1169 435 1156 l 458 1133 b 497 1132 471 1122 485 1122 z "},"Ň":{"ha":1079,"x_min":0,"x_max":0,"o":"m 42 0 l 260 0 b 436 133 328 0 436 35 b 349 674 436 301 197 674 b 635 0 564 674 324 0 l 1038 0 l 1038 972 l 868 972 b 719 514 444 972 939 514 b 396 972 539 514 774 972 l 42 972 z m 550 1132 l 649 1219 b 647 1258 663 1232 661 1246 l 617 1285 b 578 1279 603 1297 588 1294 l 550 1239 b 511 1239 539 1222 522 1222 l 483 1279 b 444 1283 474 1294 458 1296 l 414 1258 b 413 1219 400 1246 399 1232 l 511 1132 b 550 1132 525 1119 536 1119 z "},"Ņ":{"ha":1079,"x_min":0,"x_max":0,"o":"m 42 0 l 260 0 b 436 133 328 0 436 35 b 349 674 436 301 197 674 b 635 0 564 674 324 0 l 1038 0 l 1038 972 l 868 972 b 719 514 444 972 939 514 b 396 972 539 514 774 972 l 42 972 z m 557 -217 l 610 -85 b 593 -49 617 -68 611 -53 l 540 -35 b 507 -57 522 -29 510 -37 l 486 -197 b 508 -229 483 -215 492 -225 l 522 -233 b 557 -217 539 -237 551 -232 z "},"Ñ":{"ha":1079,"x_min":0,"x_max":0,"o":"m 42 0 l 260 0 b 436 133 328 0 436 35 b 349 674 436 301 197 674 b 635 0 564 674 324 0 l 1038 0 l 1038 972 l 868 972 b 719 514 444 972 939 514 b 396 972 539 514 774 972 l 42 972 z m 594 1115 b 686 1194 628 1115 669 1121 b 665 1268 697 1242 683 1268 l 639 1268 b 610 1240 622 1268 614 1258 b 579 1203 606 1217 594 1203 b 464 1292 538 1203 543 1292 b 368 1169 426 1292 375 1283 b 394 1139 367 1150 376 1139 l 419 1139 b 449 1167 436 1139 444 1149 b 481 1204 453 1190 465 1204 b 594 1115 522 1204 517 1115 z "},"O":{"ha":1003,"x_min":0,"x_max":0,"o":"m 501 -15 b 968 485 847 -15 968 158 b 501 988 968 814 847 988 b 35 485 156 988 35 814 b 501 -15 35 158 156 -15 z m 501 425 b 176 560 243 425 176 490 b 501 693 176 628 243 693 b 826 560 760 693 826 628 b 501 425 826 490 760 425 z "},"Ó":{"ha":1003,"x_min":0,"x_max":0,"o":"m 501 -15 b 968 485 847 -15 968 158 b 501 988 968 814 847 988 b 35 485 156 988 35 814 b 501 -15 35 158 156 -15 z m 501 425 b 176 560 243 425 176 490 b 501 693 176 628 243 693 b 826 560 760 693 826 628 b 501 425 826 490 760 425 z m 469 1143 l 581 1231 b 583 1269 596 1243 596 1257 l 544 1308 b 506 1306 532 1321 517 1321 l 417 1194 b 419 1156 406 1181 407 1167 l 431 1144 b 469 1143 443 1133 457 1133 z "},"Ô":{"ha":1003,"x_min":0,"x_max":0,"o":"m 501 -15 b 968 485 847 -15 968 158 b 501 988 968 814 847 988 b 35 485 156 988 35 814 b 501 -15 35 158 156 -15 z m 501 425 b 176 560 243 425 176 490 b 501 693 176 628 243 693 b 826 560 760 693 826 628 b 501 425 826 490 760 425 z m 589 1144 l 619 1171 b 621 1210 633 1183 635 1197 l 522 1297 b 483 1297 508 1310 497 1310 l 385 1210 b 386 1171 371 1197 372 1183 l 417 1144 b 456 1150 431 1132 446 1135 l 483 1190 b 522 1190 494 1207 511 1207 l 550 1150 b 589 1144 560 1135 575 1132 z "},"Ö":{"ha":1003,"x_min":0,"x_max":0,"o":"m 501 -15 b 968 485 847 -15 968 158 b 501 988 968 814 847 988 b 35 485 156 988 35 814 b 501 -15 35 158 156 -15 z m 501 425 b 176 560 243 425 176 490 b 501 693 176 628 243 693 b 826 560 760 693 826 628 b 501 425 826 490 760 425 z m 419 1126 b 489 1196 458 1126 489 1157 b 419 1265 489 1235 458 1265 b 350 1196 381 1265 350 1235 b 419 1126 350 1157 381 1126 z m 586 1126 b 656 1196 625 1126 656 1157 b 586 1265 656 1235 625 1265 b 517 1196 547 1265 517 1235 b 586 1126 517 1157 547 1126 z "},"Ò":{"ha":1003,"x_min":0,"x_max":0,"o":"m 501 -15 b 968 485 847 -15 968 158 b 501 988 968 814 847 988 b 35 485 156 988 35 814 b 501 -15 35 158 156 -15 z m 501 425 b 176 560 243 425 176 490 b 501 693 176 628 243 693 b 826 560 760 693 826 628 b 501 425 826 490 760 425 z m 574 1144 l 585 1156 b 588 1194 597 1167 599 1181 l 499 1306 b 460 1308 488 1321 472 1321 l 421 1269 b 424 1231 408 1257 408 1243 l 535 1143 b 574 1144 547 1133 561 1133 z "},"Ő":{"ha":1003,"x_min":0,"x_max":0,"o":"m 501 -15 b 968 485 847 -15 968 158 b 501 988 968 814 847 988 b 35 485 156 988 35 814 b 501 -15 35 158 156 -15 z m 501 425 b 176 560 243 425 176 490 b 501 693 176 628 243 693 b 826 560 760 693 826 628 b 501 425 826 490 760 425 z m 406 1146 l 500 1251 b 496 1290 513 1265 511 1279 l 450 1322 b 413 1313 435 1333 421 1329 l 344 1189 b 354 1150 336 1174 340 1160 l 367 1142 b 406 1146 381 1132 394 1133 z m 558 1146 l 653 1251 b 649 1290 665 1265 664 1279 l 603 1322 b 565 1313 588 1333 574 1329 l 497 1189 b 507 1150 489 1174 493 1160 l 519 1142 b 558 1146 533 1132 547 1133 z "},"Ō":{"ha":1003,"x_min":0,"x_max":0,"o":"m 501 -15 b 968 485 847 -15 968 158 b 501 988 968 814 847 988 b 35 485 156 988 35 814 b 501 -15 35 158 156 -15 z m 501 425 b 176 560 243 425 176 490 b 501 693 176 628 243 693 b 826 560 760 693 826 628 b 501 425 826 490 760 425 z m 411 1140 l 594 1140 b 622 1168 613 1140 622 1150 l 622 1182 b 594 1210 622 1200 613 1210 l 411 1210 b 383 1182 393 1210 383 1200 l 383 1168 b 411 1140 383 1150 393 1140 z "},"Ø":{"ha":1003,"x_min":0,"x_max":0,"o":"m 501 -15 b 968 485 847 -15 968 158 b 799 917 968 692 921 838 l 851 1025 b 819 1056 860 1042 844 1056 l 638 1056 b 601 1031 617 1056 610 1047 l 579 985 l 501 988 b 35 485 156 988 35 814 b 153 97 35 311 69 181 l 89 -36 b 119 -67 81 -54 96 -67 l 301 -67 b 338 -42 322 -67 329 -58 l 356 -3 b 501 -15 400 -11 447 -15 z m 176 560 b 439 692 176 622 232 682 l 318 440 b 176 560 210 464 176 511 z m 563 426 l 683 678 b 826 560 793 654 826 607 b 563 426 826 496 771 436 z "},"Õ":{"ha":1003,"x_min":0,"x_max":0,"o":"m 501 -15 b 968 485 847 -15 968 158 b 501 988 968 814 847 988 b 35 485 156 988 35 814 b 501 -15 35 158 156 -15 z m 501 425 b 176 560 243 425 176 490 b 501 693 176 628 243 693 b 826 560 760 693 826 628 b 501 425 826 490 760 425 z m 567 1126 b 658 1206 600 1126 642 1132 b 638 1279 669 1253 656 1279 l 611 1279 b 582 1251 594 1279 586 1269 b 551 1214 578 1228 567 1214 b 436 1303 510 1214 515 1303 b 340 1181 399 1303 347 1294 b 367 1150 339 1161 349 1150 l 392 1150 b 421 1178 408 1150 417 1160 b 453 1215 425 1201 438 1215 b 567 1126 494 1215 489 1126 z "},"Œ":{"ha":1676,"x_min":0,"x_max":0,"o":"m 501 -15 b 829 78 649 -15 756 17 l 829 0 l 1633 0 l 1635 381 b 1211 307 1449 381 1356 325 b 1128 371 1158 301 1128 332 l 1128 389 b 1188 429 1128 408 1139 429 l 1493 429 l 1493 554 l 1188 554 b 1128 594 1139 554 1128 575 l 1128 601 b 1199 671 1128 643 1150 675 b 1564 614 1318 660 1382 617 l 1564 972 l 829 972 l 829 894 b 501 988 756 956 649 988 b 35 485 156 988 35 814 b 501 -15 35 158 156 -15 z m 501 425 b 176 560 243 425 176 490 b 501 693 176 628 243 693 b 826 560 760 693 826 628 b 501 425 826 490 760 425 z "},"P":{"ha":1013,"x_min":0,"x_max":0,"o":"m 42 0 l 260 0 b 422 138 328 0 428 39 b 389 431 415 244 401 329 b 676 269 433 340 556 267 b 978 646 881 272 978 411 b 358 983 978 963 818 1007 l 42 972 z m 368 653 l 367 681 b 576 771 375 750 469 771 b 760 665 668 771 760 736 b 579 556 760 588 674 556 b 368 653 479 556 382 582 z "},"Þ":{"ha":974,"x_min":0,"x_max":0,"o":"m 592 640 b 788 543 750 640 788 590 b 592 451 788 497 750 451 b 399 543 439 451 399 497 b 592 640 399 590 439 640 z m 42 0 l 260 0 b 422 138 328 0 428 39 b 396 388 417 229 406 303 l 399 388 b 651 190 411 389 439 190 b 939 517 869 190 939 356 b 622 851 939 713 851 849 b 381 729 421 854 406 729 l 378 729 l 379 861 b 274 972 382 960 350 972 l 42 972 z "},"Q":{"ha":1068,"x_min":0,"x_max":0,"o":"m 467 -15 b 476 -278 651 -15 408 -192 l 1033 -278 b 754 -32 1033 21 949 25 b 699 6 690 -50 682 -3 b 968 485 863 78 968 203 b 501 988 968 814 847 988 b 35 485 156 988 35 814 b 467 -15 35 158 214 -15 z m 501 425 b 176 560 243 425 176 490 b 501 693 176 628 243 693 b 826 560 760 693 826 628 b 501 425 826 490 760 425 z "},"R":{"ha":1044,"x_min":0,"x_max":0,"o":"m 42 0 l 260 0 b 422 138 328 0 428 39 b 393 400 417 233 404 311 l 400 400 b 558 197 503 400 558 324 b 622 0 558 54 550 0 l 1003 0 l 964 213 b 661 436 935 369 807 436 b 619 458 633 436 619 446 b 640 475 619 472 628 475 l 653 475 b 914 713 782 475 914 547 b 358 983 914 963 782 1006 l 42 972 z m 368 665 l 367 682 b 540 771 369 753 460 771 b 706 686 649 771 706 750 b 524 586 707 626 661 586 b 368 665 428 586 372 615 z "},"Ŕ":{"ha":1044,"x_min":0,"x_max":0,"o":"m 42 0 l 260 0 b 422 138 328 0 428 39 b 393 400 417 233 404 311 l 400 400 b 558 197 503 400 558 324 b 622 0 558 54 550 0 l 1003 0 l 964 213 b 661 436 935 369 807 436 b 619 458 633 436 619 446 b 640 475 619 472 628 475 l 653 475 b 914 713 782 475 914 547 b 358 983 914 963 782 1006 l 42 972 z m 449 1133 l 560 1221 b 563 1260 575 1233 575 1247 l 524 1299 b 485 1296 511 1311 496 1311 l 396 1185 b 399 1146 385 1171 386 1157 l 410 1135 b 449 1133 422 1124 436 1124 z m 368 665 l 367 682 b 540 771 369 753 460 771 b 706 686 649 771 706 750 b 524 586 707 626 661 586 b 368 665 428 586 372 615 z "},"Ř":{"ha":1044,"x_min":0,"x_max":0,"o":"m 42 0 l 260 0 b 422 138 328 0 428 39 b 393 400 417 233 404 311 l 400 400 b 558 197 503 400 558 324 b 622 0 558 54 550 0 l 1003 0 l 964 213 b 661 436 935 369 807 436 b 619 458 633 436 619 446 b 640 475 619 472 628 475 l 653 475 b 914 713 782 475 914 547 b 358 983 914 963 782 1006 l 42 972 z m 501 1133 l 600 1221 b 599 1260 614 1233 613 1247 l 568 1286 b 529 1281 554 1299 539 1296 l 501 1240 b 463 1240 490 1224 474 1224 l 435 1281 b 396 1285 425 1296 410 1297 l 365 1260 b 364 1221 351 1247 350 1233 l 463 1133 b 501 1133 476 1121 488 1121 z m 368 665 l 367 682 b 540 771 369 753 460 771 b 706 686 649 771 706 750 b 524 586 707 626 661 586 b 368 665 428 586 372 615 z "},"Ŗ":{"ha":1044,"x_min":0,"x_max":0,"o":"m 42 0 l 260 0 b 422 138 328 0 428 39 b 393 400 417 233 404 311 l 400 400 b 558 197 503 400 558 324 b 622 0 558 54 550 0 l 1003 0 l 964 213 b 661 436 935 369 807 436 b 619 458 633 436 619 446 b 640 475 619 472 628 475 l 653 475 b 914 713 782 475 914 547 b 358 983 914 963 782 1006 l 42 972 z m 494 -217 l 547 -85 b 531 -49 554 -68 549 -53 l 478 -35 b 444 -57 460 -29 447 -37 l 424 -197 b 446 -229 421 -215 429 -225 l 460 -233 b 494 -217 476 -237 489 -232 z m 368 665 l 367 682 b 540 771 369 753 460 771 b 706 686 649 771 706 750 b 524 586 707 626 661 586 b 368 665 428 586 372 615 z "},"S":{"ha":1013,"x_min":0,"x_max":0,"o":"m 800 639 l 924 860 b 35 643 754 1067 35 1042 b 574 410 35 286 538 492 b 158 338 622 299 286 299 l 35 117 b 978 315 167 -71 978 -114 b 403 576 978 731 443 492 b 800 639 343 703 726 681 z "},"Ś":{"ha":1013,"x_min":0,"x_max":0,"o":"m 800 639 l 924 860 b 35 643 754 1067 35 1042 b 574 410 35 286 538 492 b 158 338 622 299 286 299 l 35 117 b 978 315 167 -71 978 -114 b 403 576 978 731 443 492 b 800 639 343 703 726 681 z m 474 1139 l 585 1226 b 588 1265 600 1239 600 1253 l 549 1304 b 510 1301 536 1317 521 1317 l 421 1190 b 424 1151 410 1176 411 1163 l 435 1140 b 474 1139 447 1129 461 1129 z "},"Š":{"ha":1013,"x_min":0,"x_max":0,"o":"m 800 639 l 924 860 b 35 643 754 1067 35 1042 b 574 410 35 286 538 492 b 158 338 622 299 286 299 l 35 117 b 978 315 167 -71 978 -114 b 403 576 978 731 443 492 b 800 639 343 703 726 681 z m 526 1139 l 625 1226 b 624 1265 639 1239 638 1253 l 593 1292 b 554 1286 579 1304 564 1301 l 526 1246 b 488 1246 515 1229 499 1229 l 460 1286 b 421 1290 450 1301 435 1303 l 390 1265 b 389 1226 376 1253 375 1239 l 488 1139 b 526 1139 501 1126 513 1126 z "},"Ş":{"ha":1013,"x_min":0,"x_max":0,"o":"m 800 639 l 924 860 b 35 643 754 1067 35 1042 b 574 410 35 286 538 492 b 158 338 622 299 286 299 l 35 117 b 475 -19 93 35 282 -21 l 469 -64 b 500 -93 467 -89 472 -92 b 546 -118 533 -94 546 -106 b 486 -143 546 -131 531 -143 b 454 -171 460 -143 454 -151 l 454 -183 b 486 -211 454 -203 460 -211 b 610 -124 574 -211 610 -171 b 542 -54 610 -86 588 -62 b 517 -24 522 -51 514 -42 l 518 -18 b 978 315 751 -7 978 89 b 403 576 978 731 443 492 b 800 639 343 703 726 681 z "},"Ș":{"ha":1013,"x_min":0,"x_max":0,"o":"m 800 639 l 924 860 b 35 643 754 1067 35 1042 b 574 410 35 286 538 492 b 158 338 622 299 286 299 l 35 117 b 978 315 167 -71 978 -114 b 403 576 978 731 443 492 b 800 639 343 703 726 681 z m 538 -215 l 590 -83 b 574 -47 597 -67 592 -51 l 521 -33 b 488 -56 503 -28 490 -36 l 467 -196 b 489 -228 464 -214 472 -224 l 503 -232 b 538 -215 519 -236 532 -231 z "},"ẞ":{"ha":928,"x_min":0,"x_max":0,"o":"m 42 0 l 211 0 b 372 133 288 0 372 22 b 360 683 372 317 358 429 b 547 632 458 692 547 686 b 465 539 547 557 457 543 l 465 443 b 579 374 468 442 579 428 b 465 314 579 294 476 310 l 465 -7 b 886 261 525 -21 886 -1 b 679 476 886 425 772 461 b 635 497 654 481 639 485 l 635 503 b 692 536 635 519 650 519 b 835 803 772 567 835 618 l 835 972 l 42 972 z m 465 315 b 465 315 464 315 464 315 z "},"T":{"ha":1000,"x_min":0,"x_max":0,"o":"m 314 0 l 708 0 b 628 579 750 138 665 333 b 692 661 617 653 646 672 b 958 592 785 640 844 594 l 958 972 l 42 972 l 43 593 b 310 661 157 594 217 640 b 369 579 360 672 372 647 b 314 0 351 325 265 118 z "},"Ť":{"ha":1000,"x_min":0,"x_max":0,"o":"m 314 0 l 708 0 b 628 579 750 138 665 333 b 692 661 617 653 646 672 b 958 592 785 640 844 594 l 958 972 l 42 972 l 43 593 b 310 661 157 594 217 640 b 369 579 360 672 372 647 b 314 0 351 325 265 118 z m 519 1114 l 618 1201 b 617 1240 632 1214 631 1228 l 586 1267 b 547 1261 572 1279 557 1276 l 519 1221 b 481 1221 508 1204 492 1204 l 453 1261 b 414 1265 443 1276 428 1278 l 383 1240 b 382 1201 369 1228 368 1214 l 481 1114 b 519 1114 494 1101 506 1101 z "},"Ţ":{"ha":1000,"x_min":0,"x_max":0,"o":"m 314 0 l 472 0 l 465 -51 b 496 -81 463 -76 468 -79 b 542 -106 529 -82 542 -93 b 482 -131 542 -118 526 -131 b 450 -158 456 -131 450 -139 l 450 -171 b 482 -199 450 -190 456 -199 b 606 -111 569 -199 606 -158 b 538 -42 606 -74 583 -50 b 513 -11 518 -39 510 -29 l 514 0 l 708 0 b 628 579 750 138 665 333 b 692 661 617 653 646 672 b 958 592 785 640 844 594 l 958 972 l 42 972 l 43 593 b 310 661 157 594 217 640 b 369 579 360 672 372 647 b 314 0 351 325 265 118 z "},"Ț":{"ha":1000,"x_min":0,"x_max":0,"o":"m 314 0 l 708 0 b 628 579 750 138 665 333 b 692 661 617 653 646 672 b 958 592 785 640 844 594 l 958 972 l 42 972 l 43 593 b 310 661 157 594 217 640 b 369 579 360 672 372 647 b 314 0 351 325 265 118 z m 533 -203 l 586 -71 b 569 -35 593 -54 588 -39 l 517 -21 b 483 -43 499 -15 486 -24 l 463 -183 b 485 -215 460 -201 468 -211 l 499 -219 b 533 -203 515 -224 528 -218 z "},"U":{"ha":1072,"x_min":0,"x_max":0,"o":"m 940 972 l 719 972 b 657 561 585 972 588 699 b 613 115 761 356 710 115 b 511 689 518 115 458 275 l 547 972 l 132 972 b 42 501 88 896 42 679 b 542 -12 42 108 215 -12 b 1031 501 857 -12 1031 108 b 940 972 1031 679 1000 871 z "},"Ú":{"ha":1072,"x_min":0,"x_max":0,"o":"m 940 972 l 719 972 b 657 561 585 972 588 699 b 613 115 761 356 710 115 b 511 689 518 115 458 275 l 547 972 l 132 972 b 42 501 88 896 42 679 b 542 -12 42 108 215 -12 b 1031 501 857 -12 1031 108 b 940 972 1031 679 1000 871 z m 519 1115 l 631 1203 b 633 1242 646 1215 646 1229 l 594 1281 b 556 1278 582 1293 567 1293 l 467 1167 b 469 1128 456 1153 457 1139 l 481 1117 b 519 1115 493 1106 507 1106 z "},"Û":{"ha":1072,"x_min":0,"x_max":0,"o":"m 940 972 l 719 972 b 657 561 585 972 588 699 b 613 115 761 356 710 115 b 511 689 518 115 458 275 l 547 972 l 132 972 b 42 501 88 896 42 679 b 542 -12 42 108 215 -12 b 1031 501 857 -12 1031 108 b 940 972 1031 679 1000 871 z m 639 1117 l 669 1143 b 671 1182 683 1156 685 1169 l 572 1269 b 533 1269 558 1282 547 1282 l 435 1182 b 436 1143 421 1169 422 1156 l 467 1117 b 506 1122 481 1104 496 1107 l 533 1163 b 572 1163 544 1179 561 1179 l 600 1122 b 639 1117 610 1107 625 1104 z "},"Ü":{"ha":1072,"x_min":0,"x_max":0,"o":"m 940 972 l 719 972 b 657 561 585 972 588 699 b 613 115 761 356 710 115 b 511 689 518 115 458 275 l 547 972 l 132 972 b 42 501 88 896 42 679 b 542 -12 42 108 215 -12 b 1031 501 857 -12 1031 108 b 940 972 1031 679 1000 871 z m 469 1099 b 539 1168 508 1099 539 1129 b 469 1238 539 1207 508 1238 b 400 1168 431 1238 400 1207 b 469 1099 400 1129 431 1099 z m 636 1099 b 706 1168 675 1099 706 1129 b 636 1238 706 1207 675 1238 b 567 1168 597 1238 567 1207 b 636 1099 567 1129 597 1099 z "},"Ù":{"ha":1072,"x_min":0,"x_max":0,"o":"m 940 972 l 719 972 b 657 561 585 972 588 699 b 613 115 761 356 710 115 b 511 689 518 115 458 275 l 547 972 l 132 972 b 42 501 88 896 42 679 b 542 -12 42 108 215 -12 b 1031 501 857 -12 1031 108 b 940 972 1031 679 1000 871 z m 624 1117 l 635 1128 b 638 1167 647 1139 649 1153 l 549 1278 b 510 1281 538 1293 522 1293 l 471 1242 b 474 1203 458 1229 458 1215 l 585 1115 b 624 1117 597 1106 611 1106 z "},"Ű":{"ha":1072,"x_min":0,"x_max":0,"o":"m 940 972 l 719 972 b 657 561 585 972 588 699 b 613 115 761 356 710 115 b 511 689 518 115 458 275 l 547 972 l 132 972 b 42 501 88 896 42 679 b 542 -12 42 108 215 -12 b 1031 501 857 -12 1031 108 b 940 972 1031 679 1000 871 z m 456 1118 l 550 1224 b 546 1263 563 1238 561 1251 l 500 1294 b 463 1285 485 1306 471 1301 l 394 1161 b 404 1122 386 1146 390 1132 l 417 1114 b 456 1118 431 1104 444 1106 z m 608 1118 l 703 1224 b 699 1263 715 1238 714 1251 l 653 1294 b 615 1285 638 1306 624 1301 l 547 1161 b 557 1122 539 1146 543 1132 l 569 1114 b 608 1118 583 1104 597 1106 z "},"Ū":{"ha":1072,"x_min":0,"x_max":0,"o":"m 940 972 l 719 972 b 657 561 585 972 588 699 b 613 115 761 356 710 115 b 511 689 518 115 458 275 l 547 972 l 132 972 b 42 501 88 896 42 679 b 542 -12 42 108 215 -12 b 1031 501 857 -12 1031 108 b 940 972 1031 679 1000 871 z m 461 1113 l 644 1113 b 672 1140 663 1113 672 1122 l 672 1154 b 644 1182 672 1172 663 1182 l 461 1182 b 433 1154 443 1182 433 1172 l 433 1140 b 461 1113 433 1122 443 1113 z "},"Ų":{"ha":1072,"x_min":0,"x_max":0,"o":"m 940 972 l 719 972 b 657 561 585 972 588 699 b 613 115 761 356 710 115 b 511 689 518 115 458 275 l 547 972 l 132 972 b 42 501 88 896 42 679 b 542 -12 42 108 215 -12 b 832 46 658 -12 756 4 b 813 -25 819 19 813 -4 b 915 -100 813 -68 839 -100 b 954 -72 944 -100 954 -90 l 954 -46 b 915 -18 954 -28 944 -18 b 869 15 879 -18 869 -4 b 913 104 869 38 888 71 b 1031 501 990 185 1031 311 b 940 972 1031 679 1000 871 z "},"Ů":{"ha":1072,"x_min":0,"x_max":0,"o":"m 940 972 l 719 972 b 657 561 585 972 588 699 b 613 115 761 356 710 115 b 511 689 518 115 458 275 l 547 972 l 132 972 b 42 501 88 896 42 679 b 542 -12 42 108 215 -12 b 1031 501 857 -12 1031 108 b 940 972 1031 679 1000 871 z m 553 1099 b 661 1208 613 1099 661 1147 b 553 1317 661 1268 613 1317 b 443 1208 492 1317 443 1268 b 553 1099 443 1147 492 1099 z m 553 1150 b 494 1208 521 1150 494 1176 b 553 1265 494 1239 521 1265 b 610 1208 583 1265 610 1239 b 553 1150 610 1176 583 1150 z "},"Ũ":{"ha":1072,"x_min":0,"x_max":0,"o":"m 940 972 l 719 972 b 657 561 585 972 588 699 b 613 115 761 356 710 115 b 511 689 518 115 458 275 l 547 972 l 132 972 b 42 501 88 896 42 679 b 542 -12 42 108 215 -12 b 1031 501 857 -12 1031 108 b 940 972 1031 679 1000 871 z m 617 1099 b 708 1178 650 1099 692 1104 b 688 1251 719 1225 706 1251 l 661 1251 b 632 1224 644 1251 636 1242 b 601 1186 628 1200 617 1186 b 486 1275 560 1186 565 1275 b 390 1153 449 1275 397 1267 b 417 1122 389 1133 399 1122 l 442 1122 b 471 1150 458 1122 467 1132 b 503 1188 475 1174 488 1188 b 617 1099 544 1188 539 1099 z "},"V":{"ha":988,"x_min":0,"x_max":0,"o":"m 721 0 l 953 972 l 629 972 b 614 949 614 972 611 963 b 596 389 644 675 628 518 b 453 413 564 296 458 326 l 451 408 b 371 972 465 722 588 972 l 35 972 l 267 0 z "},"W":{"ha":1565,"x_min":0,"x_max":0,"o":"m 721 0 b 783 233 783 0 732 233 b 844 0 835 233 785 0 l 1299 0 l 1531 972 l 1194 972 b 1113 431 983 972 1094 732 b 1051 340 1117 382 1086 340 b 954 875 897 340 935 738 l 611 875 b 535 333 631 739 669 335 b 453 429 485 333 451 369 b 371 972 471 732 582 972 l 35 972 l 267 0 z "},"Ẃ":{"ha":1565,"x_min":0,"x_max":0,"o":"m 721 0 b 783 233 783 0 732 233 b 844 0 835 233 785 0 l 1299 0 l 1531 972 l 1194 972 b 1113 431 983 972 1094 732 b 1051 340 1117 382 1086 340 b 954 875 897 340 935 738 l 611 875 b 535 333 631 739 669 335 b 453 429 485 333 451 369 b 371 972 471 732 582 972 l 35 972 l 267 0 z m 750 1049 l 861 1136 b 864 1175 876 1149 876 1163 l 825 1214 b 786 1211 813 1226 797 1226 l 697 1100 b 700 1061 686 1086 688 1072 l 711 1050 b 750 1049 724 1039 738 1039 z "},"Ŵ":{"ha":1565,"x_min":0,"x_max":0,"o":"m 721 0 b 783 233 783 0 732 233 b 844 0 835 233 785 0 l 1299 0 l 1531 972 l 1194 972 b 1113 431 983 972 1094 732 b 1051 340 1117 382 1086 340 b 954 875 897 340 935 738 l 611 875 b 535 333 631 739 669 335 b 453 429 485 333 451 369 b 371 972 471 732 582 972 l 35 972 l 267 0 z m 869 1050 l 900 1076 b 901 1115 914 1089 915 1103 l 803 1203 b 764 1203 789 1215 778 1215 l 665 1115 b 667 1076 651 1103 653 1089 l 697 1050 b 736 1056 711 1038 726 1040 l 764 1096 b 803 1096 775 1113 792 1113 l 831 1056 b 869 1050 840 1040 856 1038 z "},"Ẅ":{"ha":1565,"x_min":0,"x_max":0,"o":"m 721 0 b 783 233 783 0 732 233 b 844 0 835 233 785 0 l 1299 0 l 1531 972 l 1194 972 b 1113 431 983 972 1094 732 b 1051 340 1117 382 1086 340 b 954 875 897 340 935 738 l 611 875 b 535 333 631 739 669 335 b 453 429 485 333 451 369 b 371 972 471 732 582 972 l 35 972 l 267 0 z m 700 1032 b 769 1101 739 1032 769 1063 b 700 1171 769 1140 739 1171 b 631 1101 661 1171 631 1140 b 700 1032 631 1063 661 1032 z m 867 1032 b 936 1101 906 1032 936 1063 b 867 1171 936 1140 906 1171 b 797 1101 828 1171 797 1140 b 867 1032 797 1063 828 1032 z "},"Ẁ":{"ha":1565,"x_min":0,"x_max":0,"o":"m 721 0 b 783 233 783 0 732 233 b 844 0 835 233 785 0 l 1299 0 l 1531 972 l 1194 972 b 1113 431 983 972 1094 732 b 1051 340 1117 382 1086 340 b 954 875 897 340 935 738 l 611 875 b 535 333 631 739 669 335 b 453 429 485 333 451 369 b 371 972 471 732 582 972 l 35 972 l 267 0 z m 854 1050 l 865 1061 b 868 1100 878 1072 879 1086 l 779 1211 b 740 1214 768 1226 753 1226 l 701 1175 b 704 1136 689 1163 689 1149 l 815 1049 b 854 1050 828 1039 842 1039 z "},"X":{"ha":1218,"x_min":0,"x_max":0,"o":"m 561 972 l 46 972 b 356 481 46 765 182 481 b 42 0 107 481 42 231 l 528 0 b 568 353 528 111 421 353 b 649 0 689 353 649 139 l 1176 0 b 804 514 1176 231 985 514 b 1125 972 1043 544 1125 721 l 694 972 b 646 614 694 865 778 614 b 561 972 531 614 561 819 z "},"Y":{"ha":1025,"x_min":0,"x_max":0,"o":"m 156 300 l 156 -8 b 983 972 954 -68 928 93 l 529 972 b 579 579 542 835 663 579 b 410 972 483 579 410 653 l 42 972 l 50 792 b 479 367 69 386 283 261 b 608 433 554 408 608 504 b 156 300 608 283 475 231 z "},"Ý":{"ha":1025,"x_min":0,"x_max":0,"o":"m 156 300 l 156 -8 b 983 972 954 -68 928 93 l 529 972 b 579 579 542 835 663 579 b 410 972 483 579 410 653 l 42 972 l 50 792 b 479 367 69 386 283 261 b 608 433 554 408 608 504 b 156 300 608 283 475 231 z m 456 1119 l 567 1207 b 569 1246 582 1219 582 1233 l 531 1285 b 492 1282 518 1297 503 1297 l 403 1171 b 406 1132 392 1157 393 1143 l 417 1121 b 456 1119 429 1110 443 1110 z "},"Ŷ":{"ha":1025,"x_min":0,"x_max":0,"o":"m 156 300 l 156 -8 b 983 972 954 -68 928 93 l 529 972 b 579 579 542 835 663 579 b 410 972 483 579 410 653 l 42 972 l 50 792 b 479 367 69 386 283 261 b 608 433 554 408 608 504 b 156 300 608 283 475 231 z m 575 1121 l 606 1147 b 607 1186 619 1160 621 1174 l 508 1274 b 469 1274 494 1286 483 1286 l 371 1186 b 372 1147 357 1174 358 1160 l 403 1121 b 442 1126 417 1108 432 1111 l 469 1167 b 508 1167 481 1183 497 1183 l 536 1126 b 575 1121 546 1111 561 1108 z "},"Ÿ":{"ha":1025,"x_min":0,"x_max":0,"o":"m 156 300 l 156 -8 b 983 972 954 -68 928 93 l 529 972 b 579 579 542 835 663 579 b 410 972 483 579 410 653 l 42 972 l 50 792 b 479 367 69 386 283 261 b 608 433 554 408 608 504 b 156 300 608 283 475 231 z m 406 1103 b 475 1172 444 1103 475 1133 b 406 1242 475 1211 444 1242 b 336 1172 367 1242 336 1211 b 406 1103 336 1133 367 1103 z m 572 1103 b 642 1172 611 1103 642 1133 b 572 1242 642 1211 611 1242 b 503 1172 533 1242 503 1211 b 572 1103 503 1133 533 1103 z "},"Ỳ":{"ha":1025,"x_min":0,"x_max":0,"o":"m 156 300 l 156 -8 b 983 972 954 -68 928 93 l 529 972 b 579 579 542 835 663 579 b 410 972 483 579 410 653 l 42 972 l 50 792 b 479 367 69 386 283 261 b 608 433 554 408 608 504 b 156 300 608 283 475 231 z m 560 1121 l 571 1132 b 574 1171 583 1143 585 1157 l 485 1282 b 446 1285 474 1297 458 1297 l 407 1246 b 410 1207 394 1233 394 1219 l 521 1119 b 560 1121 533 1110 547 1110 z "},"Ỹ":{"ha":1025,"x_min":0,"x_max":0,"o":"m 156 300 l 156 -8 b 983 972 954 -68 928 93 l 529 972 b 579 579 542 835 663 579 b 410 972 483 579 410 653 l 42 972 l 50 792 b 479 367 69 386 283 261 b 608 433 554 408 608 504 b 156 300 608 283 475 231 z m 553 1103 b 644 1182 586 1103 628 1108 b 624 1256 656 1229 642 1256 l 597 1256 b 568 1228 581 1256 572 1246 b 538 1190 564 1204 553 1190 b 422 1279 496 1190 501 1279 b 326 1157 385 1279 333 1271 b 353 1126 325 1138 335 1126 l 378 1126 b 407 1154 394 1126 403 1136 b 439 1192 411 1178 424 1192 b 553 1103 481 1192 475 1103 z "},"Z":{"ha":953,"x_min":0,"x_max":0,"o":"m 911 -1 l 911 207 b 792 383 911 275 881 383 b 310 296 642 383 310 144 b 911 868 310 511 911 271 l 911 971 l 42 971 l 42 815 b 579 710 42 392 579 929 b 42 257 579 529 42 721 l 42 -1 z "},"Ź":{"ha":953,"x_min":0,"x_max":0,"o":"m 911 -1 l 911 207 b 792 383 911 275 881 383 b 310 296 642 383 310 144 b 911 868 310 511 911 271 l 911 971 l 42 971 l 42 815 b 579 710 42 392 579 929 b 42 257 579 529 42 721 l 42 -1 z m 446 1119 l 557 1207 b 560 1246 572 1219 572 1233 l 521 1285 b 482 1282 508 1297 493 1297 l 393 1171 b 396 1132 382 1157 383 1143 l 407 1121 b 446 1119 419 1110 433 1110 z "},"Ž":{"ha":953,"x_min":0,"x_max":0,"o":"m 911 -1 l 911 207 b 792 383 911 275 881 383 b 310 296 642 383 310 144 b 911 868 310 511 911 271 l 911 971 l 42 971 l 42 815 b 579 710 42 392 579 929 b 42 257 579 529 42 721 l 42 -1 z m 499 1119 l 597 1207 b 596 1246 611 1219 610 1233 l 565 1272 b 526 1267 551 1285 536 1282 l 499 1226 b 460 1226 488 1210 471 1210 l 432 1267 b 393 1271 422 1282 407 1283 l 363 1246 b 361 1207 349 1233 347 1219 l 460 1119 b 499 1119 474 1107 485 1107 z "},"Ż":{"ha":953,"x_min":0,"x_max":0,"o":"m 911 -1 l 911 207 b 792 383 911 275 881 383 b 310 296 642 383 310 144 b 911 868 310 511 911 271 l 911 971 l 42 971 l 42 815 b 579 710 42 392 579 929 b 42 257 579 529 42 721 l 42 -1 z m 479 1103 b 549 1172 518 1103 549 1133 b 479 1242 549 1211 518 1242 b 410 1172 440 1242 410 1211 b 479 1103 410 1133 440 1103 z "},"a":{"ha":919,"x_min":0,"x_max":0,"o":"m 692 0 l 878 0 l 878 694 l 692 694 b 581 619 596 694 581 668 b 572 515 581 533 617 517 b 335 707 514 514 571 707 b 35 350 97 707 35 526 b 335 -14 35 138 114 -14 b 581 144 593 -12 514 146 b 692 0 633 144 519 0 z m 342 226 b 158 335 194 226 158 281 b 342 439 158 388 194 439 b 526 335 489 439 526 388 b 342 226 526 281 489 226 z "},"á":{"ha":919,"x_min":0,"x_max":0,"o":"m 692 0 l 878 0 l 878 694 l 692 694 b 581 619 596 694 581 668 b 572 515 581 533 617 517 b 335 707 514 514 571 707 b 35 350 97 707 35 526 b 335 -14 35 138 114 -14 b 581 144 593 -12 514 146 b 692 0 633 144 519 0 z m 342 226 b 158 335 194 226 158 281 b 342 439 158 388 194 439 b 526 335 489 439 526 388 b 342 226 526 281 489 226 z m 468 854 l 579 942 b 582 981 594 954 594 968 l 543 1019 b 504 1017 531 1032 515 1032 l 415 906 b 418 867 404 892 406 878 l 429 856 b 468 854 442 844 456 844 z "},"ă":{"ha":919,"x_min":0,"x_max":0,"o":"m 692 0 l 878 0 l 878 694 l 692 694 b 581 619 596 694 581 668 b 572 515 581 533 617 517 b 335 707 514 514 571 707 b 35 350 97 707 35 526 b 335 -14 35 138 114 -14 b 581 144 593 -12 514 146 b 692 0 633 144 519 0 z m 342 226 b 158 335 194 226 158 281 b 342 439 158 388 194 439 b 526 335 489 439 526 388 b 342 226 526 281 489 226 z m 501 838 b 631 906 553 838 589 863 b 631 950 647 922 646 939 l 603 968 b 564 958 588 978 575 974 b 501 919 544 929 528 919 b 439 958 475 919 458 929 b 400 968 428 974 415 978 l 372 950 b 368 911 357 939 354 925 b 501 838 410 864 449 838 z "},"â":{"ha":919,"x_min":0,"x_max":0,"o":"m 692 0 l 878 0 l 878 694 l 692 694 b 581 619 596 694 581 668 b 572 515 581 533 617 517 b 335 707 514 514 571 707 b 35 350 97 707 35 526 b 335 -14 35 138 114 -14 b 581 144 593 -12 514 146 b 692 0 633 144 519 0 z m 342 226 b 158 335 194 226 158 281 b 342 439 158 388 194 439 b 526 335 489 439 526 388 b 342 226 526 281 489 226 z m 588 856 l 618 882 b 619 921 632 894 633 908 l 521 1008 b 482 1008 507 1021 496 1021 l 383 921 b 385 882 369 908 371 894 l 415 856 b 454 861 429 843 444 846 l 482 901 b 521 901 493 918 510 918 l 549 861 b 588 856 558 846 574 843 z "},"ä":{"ha":919,"x_min":0,"x_max":0,"o":"m 692 0 l 878 0 l 878 694 l 692 694 b 581 619 596 694 581 668 b 572 515 581 533 617 517 b 335 707 514 514 571 707 b 35 350 97 707 35 526 b 335 -14 35 138 114 -14 b 581 144 593 -12 514 146 b 692 0 633 144 519 0 z m 342 226 b 158 335 194 226 158 281 b 342 439 158 388 194 439 b 526 335 489 439 526 388 b 342 226 526 281 489 226 z m 418 838 b 488 907 457 838 488 868 b 418 976 488 946 457 976 b 349 907 379 976 349 946 b 418 838 349 868 379 838 z m 585 838 b 654 907 624 838 654 868 b 585 976 654 946 624 976 b 515 907 546 976 515 946 b 585 838 515 868 546 838 z "},"à":{"ha":919,"x_min":0,"x_max":0,"o":"m 692 0 l 878 0 l 878 694 l 692 694 b 581 619 596 694 581 668 b 572 515 581 533 617 517 b 335 707 514 514 571 707 b 35 350 97 707 35 526 b 335 -14 35 138 114 -14 b 581 144 593 -12 514 146 b 692 0 633 144 519 0 z m 342 226 b 158 335 194 226 158 281 b 342 439 158 388 194 439 b 526 335 489 439 526 388 b 342 226 526 281 489 226 z m 572 856 l 583 867 b 586 906 596 878 597 892 l 497 1017 b 458 1019 486 1032 471 1032 l 419 981 b 422 942 407 968 407 954 l 533 854 b 572 856 546 844 560 844 z "},"ā":{"ha":919,"x_min":0,"x_max":0,"o":"m 692 0 l 878 0 l 878 694 l 692 694 b 581 619 596 694 581 668 b 572 515 581 533 617 517 b 335 707 514 514 571 707 b 35 350 97 707 35 526 b 335 -14 35 138 114 -14 b 581 144 593 -12 514 146 b 692 0 633 144 519 0 z m 342 226 b 158 335 194 226 158 281 b 342 439 158 388 194 439 b 526 335 489 439 526 388 b 342 226 526 281 489 226 z m 410 851 l 593 851 b 621 879 611 851 621 861 l 621 893 b 593 921 621 911 611 921 l 410 921 b 382 893 392 921 382 911 l 382 879 b 410 851 382 861 392 851 z "},"ą":{"ha":919,"x_min":0,"x_max":0,"o":"m 840 0 l 878 0 l 878 694 l 692 694 b 581 619 596 694 581 668 b 572 515 581 533 617 517 b 335 707 514 514 571 707 b 35 350 97 707 35 526 b 335 -14 35 138 114 -14 b 581 144 593 -12 514 146 b 692 0 633 144 519 0 l 797 0 b 756 -107 771 -40 756 -76 b 858 -182 756 -150 782 -182 b 897 -154 888 -182 897 -172 l 897 -128 b 858 -100 897 -110 888 -100 b 813 -67 822 -100 813 -86 b 840 0 813 -49 824 -25 z m 342 226 b 158 335 194 226 158 281 b 342 439 158 388 194 439 b 526 335 489 439 526 388 b 342 226 526 281 489 226 z "},"å":{"ha":919,"x_min":0,"x_max":0,"o":"m 692 0 l 878 0 l 878 694 l 692 694 b 581 619 596 694 581 668 b 572 515 581 533 617 517 b 335 707 514 514 571 707 b 35 350 97 707 35 526 b 335 -14 35 138 114 -14 b 581 144 593 -12 514 146 b 692 0 633 144 519 0 z m 342 226 b 158 335 194 226 158 281 b 342 439 158 388 194 439 b 526 335 489 439 526 388 b 342 226 526 281 489 226 z m 501 838 b 610 947 561 838 610 886 b 501 1056 610 1007 561 1056 b 392 947 440 1056 392 1007 b 501 838 392 886 440 838 z m 501 889 b 443 947 469 889 443 915 b 501 1004 443 978 469 1004 b 558 947 532 1004 558 978 b 501 889 558 915 532 889 z "},"ã":{"ha":919,"x_min":0,"x_max":0,"o":"m 692 0 l 878 0 l 878 694 l 692 694 b 581 619 596 694 581 668 b 572 515 581 533 617 517 b 335 707 514 514 571 707 b 35 350 97 707 35 526 b 335 -14 35 138 114 -14 b 581 144 593 -12 514 146 b 692 0 633 144 519 0 z m 342 226 b 158 335 194 226 158 281 b 342 439 158 388 194 439 b 526 335 489 439 526 388 b 342 226 526 281 489 226 z m 565 838 b 657 917 599 838 640 843 b 636 990 668 964 654 990 l 610 990 b 581 963 593 990 585 981 b 550 925 576 939 565 925 b 435 1014 508 925 514 1014 b 339 892 397 1014 346 1006 b 365 861 338 872 347 861 l 390 861 b 419 889 407 861 415 871 b 451 926 424 913 436 926 b 565 838 493 926 488 838 z "},"æ":{"ha":1446,"x_min":0,"x_max":0,"o":"m 692 0 l 878 0 l 878 11 b 1078 -11 932 -4 999 -11 b 1411 122 1188 -11 1354 35 l 1411 354 b 1101 226 1343 297 1258 225 b 889 325 933 226 889 303 b 1085 294 889 363 933 294 b 1354 494 1258 294 1354 372 b 1035 717 1354 642 1224 717 b 857 694 964 717 906 710 l 692 694 b 581 619 596 694 581 668 b 572 515 581 533 617 517 b 335 707 514 514 571 707 b 35 350 97 707 35 526 b 335 -14 35 138 114 -14 b 581 144 593 -12 514 146 b 692 0 633 144 519 0 z m 342 226 b 158 335 194 226 158 281 b 342 439 158 388 194 439 b 526 335 489 439 526 388 b 342 226 526 281 489 226 z m 901 461 b 1047 515 901 496 954 515 b 1192 461 1136 515 1192 496 b 1042 401 1192 418 1136 401 b 901 461 954 401 901 422 z "},"b":{"ha":919,"x_min":0,"x_max":0,"o":"m 42 0 l 228 0 b 349 118 400 0 296 118 b 585 -14 397 118 375 -15 b 885 350 806 -11 885 138 b 608 707 885 526 822 707 b 347 493 349 707 406 492 b 363 833 303 494 363 653 b 228 972 363 946 324 972 l 42 972 z m 569 217 b 393 322 429 217 393 269 b 569 424 393 374 429 424 b 747 322 713 424 747 374 b 569 217 747 269 713 217 z "},"c":{"ha":844,"x_min":0,"x_max":0,"o":"m 799 122 l 799 354 b 489 249 731 297 646 247 b 276 388 351 250 276 303 b 379 494 276 439 292 494 b 625 394 547 494 465 394 b 742 525 731 394 742 453 b 422 717 742 642 611 717 b 35 353 135 717 35 592 b 465 -11 35 115 135 -11 b 799 122 575 -11 742 35 z "},"ć":{"ha":844,"x_min":0,"x_max":0,"o":"m 799 122 l 799 354 b 489 249 731 297 646 247 b 276 388 351 250 276 303 b 379 494 276 439 292 494 b 625 394 547 494 465 394 b 742 525 731 394 742 453 b 422 717 742 642 611 717 b 35 353 135 717 35 592 b 465 -11 35 115 135 -11 b 799 122 575 -11 742 35 z m 389 853 l 500 940 b 503 979 515 953 515 967 l 464 1018 b 425 1015 451 1031 436 1031 l 336 904 b 339 865 325 890 326 876 l 350 854 b 389 853 363 843 376 843 z "},"č":{"ha":844,"x_min":0,"x_max":0,"o":"m 799 122 l 799 354 b 489 249 731 297 646 247 b 276 388 351 250 276 303 b 379 494 276 439 292 494 b 625 394 547 494 465 394 b 742 525 731 394 742 453 b 422 717 742 642 611 717 b 35 353 135 717 35 592 b 465 -11 35 115 135 -11 b 799 122 575 -11 742 35 z m 442 853 l 540 940 b 539 979 554 953 553 967 l 508 1006 b 469 1000 494 1018 479 1015 l 442 960 b 403 960 431 943 414 943 l 375 1000 b 336 1004 365 1015 350 1017 l 306 979 b 304 940 292 967 290 953 l 403 853 b 442 853 417 840 428 840 z "},"ç":{"ha":844,"x_min":0,"x_max":0,"o":"m 799 122 l 799 354 b 489 249 731 297 646 247 b 276 388 351 250 276 303 b 379 494 276 439 292 494 b 625 394 547 494 465 394 b 742 525 731 394 742 453 b 422 717 742 642 611 717 b 35 353 135 717 35 592 b 433 -11 35 124 128 -3 l 426 -64 b 457 -93 424 -89 429 -92 b 503 -118 490 -94 503 -106 b 443 -143 503 -131 488 -143 b 411 -171 417 -143 411 -151 l 411 -183 b 443 -211 411 -203 417 -211 b 567 -124 531 -211 567 -171 b 499 -54 567 -86 544 -62 b 474 -24 479 -51 471 -42 l 475 -11 b 799 122 585 -8 743 38 z "},"ċ":{"ha":844,"x_min":0,"x_max":0,"o":"m 799 122 l 799 354 b 489 249 731 297 646 247 b 276 388 351 250 276 303 b 379 494 276 439 292 494 b 625 394 547 494 465 394 b 742 525 731 394 742 453 b 422 717 742 642 611 717 b 35 353 135 717 35 592 b 465 -11 35 115 135 -11 b 799 122 575 -11 742 35 z m 422 836 b 492 906 461 836 492 867 b 422 975 492 944 461 975 b 353 906 383 975 353 944 b 422 836 353 867 383 836 z "},"d":{"ha":919,"x_min":0,"x_max":0,"o":"m 692 0 l 878 0 l 878 972 l 692 972 b 557 833 596 972 557 946 b 572 493 557 653 617 494 b 311 707 514 492 571 707 b 35 350 97 707 35 526 b 335 -14 35 138 114 -11 b 571 118 544 -15 522 118 b 692 0 624 118 519 0 z m 350 217 b 172 322 207 217 172 269 b 350 424 172 374 207 424 b 526 322 490 424 526 374 b 350 217 526 269 490 217 z "},"ď":{"ha":919,"x_min":0,"x_max":0,"o":"m 692 0 l 878 0 l 878 972 l 692 972 b 557 833 596 972 557 946 b 572 493 557 653 617 494 b 311 707 514 492 571 707 b 35 350 97 707 35 526 b 335 -14 35 138 114 -11 b 571 118 544 -15 522 118 b 692 0 624 118 519 0 z m 350 217 b 172 322 207 217 172 269 b 350 424 172 374 207 424 b 526 322 490 424 526 374 b 350 217 526 269 490 217 z m 1010 799 l 1063 931 b 1046 967 1069 947 1064 963 l 993 981 b 960 958 975 986 963 978 l 939 818 b 961 786 936 800 944 790 l 975 782 b 1010 799 992 778 1004 783 z "},"đ":{"ha":986,"x_min":0,"x_max":0,"o":"m 692 0 l 878 0 l 878 665 l 944 665 l 944 804 l 878 804 l 878 972 l 692 972 b 583 833 596 972 583 946 l 583 804 l 521 804 l 521 665 l 590 665 b 572 493 597 565 601 494 b 311 707 514 492 571 707 b 35 350 97 707 35 526 b 335 -14 35 138 114 -11 b 571 118 544 -15 522 118 b 692 0 624 118 519 0 z m 350 217 b 172 322 207 217 172 269 b 350 424 172 374 207 424 b 526 322 490 424 526 374 b 350 217 526 269 490 217 z "},"ð":{"ha":846,"x_min":0,"x_max":0,"o":"m 350 217 b 172 322 207 217 172 269 b 350 424 172 374 207 424 b 526 322 490 424 526 374 b 350 217 526 269 490 217 z m 519 978 l 347 860 b 428 786 363 847 393 821 l 385 763 l 454 650 l 517 683 b 557 493 576 601 597 493 b 325 656 510 493 585 656 b 35 328 111 656 35 511 b 403 -14 35 138 154 -14 b 804 397 569 -14 804 74 b 703 782 804 564 760 689 l 746 804 l 678 921 l 619 889 b 519 978 585 925 550 954 z "},"e":{"ha":833,"x_min":0,"x_max":0,"o":"m 799 122 l 799 354 b 489 226 731 297 646 225 b 276 325 321 226 276 303 b 472 294 276 363 321 294 b 742 494 646 294 742 372 b 422 717 742 642 611 717 b 35 353 135 717 35 592 b 465 -11 35 115 135 -11 b 799 122 575 -11 742 35 z m 289 461 b 435 515 289 496 342 515 b 579 461 524 515 579 496 b 429 401 579 418 524 401 b 289 461 342 401 289 422 z "},"é":{"ha":833,"x_min":0,"x_max":0,"o":"m 799 122 l 799 354 b 489 226 731 297 646 225 b 276 325 321 226 276 303 b 472 294 276 363 321 294 b 742 494 646 294 742 372 b 422 717 742 642 611 717 b 35 353 135 717 35 592 b 465 -11 35 115 135 -11 b 799 122 575 -11 742 35 z m 289 461 b 435 515 289 496 342 515 b 579 461 524 515 579 496 b 429 401 579 418 524 401 b 289 461 342 401 289 422 z m 389 860 l 500 947 b 503 986 515 960 515 974 l 464 1025 b 425 1022 451 1038 436 1038 l 336 911 b 339 872 325 897 326 883 l 350 861 b 389 860 363 850 376 850 z "},"ě":{"ha":833,"x_min":0,"x_max":0,"o":"m 799 122 l 799 354 b 489 226 731 297 646 225 b 276 325 321 226 276 303 b 472 294 276 363 321 294 b 742 494 646 294 742 372 b 422 717 742 642 611 717 b 35 353 135 717 35 592 b 465 -11 35 115 135 -11 b 799 122 575 -11 742 35 z m 289 461 b 435 515 289 496 342 515 b 579 461 524 515 579 496 b 429 401 579 418 524 401 b 289 461 342 401 289 422 z m 442 860 l 540 947 b 539 986 554 960 553 974 l 508 1013 b 469 1007 494 1025 479 1022 l 442 967 b 403 967 431 950 414 950 l 375 1007 b 336 1011 365 1022 350 1024 l 306 986 b 304 947 292 974 290 960 l 403 860 b 442 860 417 847 428 847 z "},"ê":{"ha":833,"x_min":0,"x_max":0,"o":"m 799 122 l 799 354 b 489 226 731 297 646 225 b 276 325 321 226 276 303 b 472 294 276 363 321 294 b 742 494 646 294 742 372 b 422 717 742 642 611 717 b 35 353 135 717 35 592 b 465 -11 35 115 135 -11 b 799 122 575 -11 742 35 z m 289 461 b 435 515 289 496 342 515 b 579 461 524 515 579 496 b 429 401 579 418 524 401 b 289 461 342 401 289 422 z m 508 861 l 539 888 b 540 926 553 900 554 914 l 442 1014 b 403 1014 428 1026 417 1026 l 304 926 b 306 888 290 914 292 900 l 336 861 b 375 867 350 849 365 851 l 403 907 b 442 907 414 924 431 924 l 469 867 b 508 861 479 851 494 849 z "},"ë":{"ha":833,"x_min":0,"x_max":0,"o":"m 799 122 l 799 354 b 489 226 731 297 646 225 b 276 325 321 226 276 303 b 472 294 276 363 321 294 b 742 494 646 294 742 372 b 422 717 742 642 611 717 b 35 353 135 717 35 592 b 465 -11 35 115 135 -11 b 799 122 575 -11 742 35 z m 289 461 b 435 515 289 496 342 515 b 579 461 524 515 579 496 b 429 401 579 418 524 401 b 289 461 342 401 289 422 z m 339 843 b 408 913 378 843 408 874 b 339 982 408 951 378 982 b 269 913 300 982 269 951 b 339 843 269 874 300 843 z m 506 843 b 575 913 544 843 575 874 b 506 982 575 951 544 982 b 436 913 467 982 436 951 b 506 843 436 874 467 843 z "},"ė":{"ha":833,"x_min":0,"x_max":0,"o":"m 799 122 l 799 354 b 489 226 731 297 646 225 b 276 325 321 226 276 303 b 472 294 276 363 321 294 b 742 494 646 294 742 372 b 422 717 742 642 611 717 b 35 353 135 717 35 592 b 465 -11 35 115 135 -11 b 799 122 575 -11 742 35 z m 289 461 b 435 515 289 496 342 515 b 579 461 524 515 579 496 b 429 401 579 418 524 401 b 289 461 342 401 289 422 z m 422 843 b 492 913 461 843 492 874 b 422 982 492 951 461 982 b 353 913 383 982 353 951 b 422 843 353 874 383 843 z "},"è":{"ha":833,"x_min":0,"x_max":0,"o":"m 799 122 l 799 354 b 489 226 731 297 646 225 b 276 325 321 226 276 303 b 472 294 276 363 321 294 b 742 494 646 294 742 372 b 422 717 742 642 611 717 b 35 353 135 717 35 592 b 465 -11 35 115 135 -11 b 799 122 575 -11 742 35 z m 289 461 b 435 515 289 496 342 515 b 579 461 524 515 579 496 b 429 401 579 418 524 401 b 289 461 342 401 289 422 z m 493 861 l 504 872 b 507 911 517 883 518 897 l 418 1022 b 379 1025 407 1038 392 1038 l 340 986 b 343 947 328 974 328 960 l 454 860 b 493 861 467 850 481 850 z "},"ē":{"ha":833,"x_min":0,"x_max":0,"o":"m 799 122 l 799 354 b 489 226 731 297 646 225 b 276 325 321 226 276 303 b 472 294 276 363 321 294 b 742 494 646 294 742 372 b 422 717 742 642 611 717 b 35 353 135 717 35 592 b 465 -11 35 115 135 -11 b 799 122 575 -11 742 35 z m 289 461 b 435 515 289 496 342 515 b 579 461 524 515 579 496 b 429 401 579 418 524 401 b 289 461 342 401 289 422 z m 331 857 l 514 857 b 542 885 532 857 542 867 l 542 899 b 514 926 542 917 532 926 l 331 926 b 303 899 313 926 303 917 l 303 885 b 331 857 303 867 313 857 z "},"ę":{"ha":833,"x_min":0,"x_max":0,"o":"m 799 122 l 799 354 b 489 226 731 297 646 225 b 276 325 321 226 276 303 b 472 294 276 363 321 294 b 742 494 646 294 742 372 b 422 717 742 642 611 717 b 35 353 135 717 35 592 b 465 -11 35 115 135 -11 b 697 42 535 -11 625 7 b 675 -33 683 14 675 -11 b 778 -108 675 -76 701 -108 b 817 -81 807 -108 817 -99 l 817 -54 b 778 -26 817 -36 807 -26 b 732 7 742 -26 732 -12 b 768 88 732 28 747 57 b 799 122 781 99 790 110 z m 289 461 b 435 515 289 496 342 515 b 579 461 524 515 579 496 b 429 401 579 418 524 401 b 289 461 342 401 289 422 z "},"ẽ":{"ha":833,"x_min":0,"x_max":0,"o":"m 799 122 l 799 354 b 489 226 731 297 646 225 b 276 325 321 226 276 303 b 472 294 276 363 321 294 b 742 494 646 294 742 372 b 422 717 742 642 611 717 b 35 353 135 717 35 592 b 465 -11 35 115 135 -11 b 799 122 575 -11 742 35 z m 289 461 b 435 515 289 496 342 515 b 579 461 524 515 579 496 b 429 401 579 418 524 401 b 289 461 342 401 289 422 z m 486 843 b 578 922 519 843 561 849 b 557 996 589 969 575 996 l 531 996 b 501 968 514 996 506 986 b 471 931 497 944 486 931 b 356 1019 429 931 435 1019 b 260 897 318 1019 267 1011 b 286 867 258 878 268 867 l 311 867 b 340 894 328 867 336 876 b 372 932 344 918 357 932 b 486 843 414 932 408 843 z "},"ə":{"ha":750,"x_min":0,"x_max":0,"o":"m 97 694 l 97 482 b 499 379 194 529 499 539 b 283 438 499 342 457 438 b 28 233 93 438 28 356 b 340 -10 28 64 190 -10 b 722 343 629 -10 722 150 b 97 694 722 640 496 754 z m 486 236 b 351 182 486 201 439 182 b 218 236 269 182 218 201 b 357 294 218 279 269 294 b 486 236 438 294 486 275 z "},"f":{"ha":781,"x_min":0,"x_max":0,"o":"m 172 0 l 610 0 b 496 415 610 313 453 369 b 739 339 538 460 610 339 l 739 613 b 460 682 524 613 458 599 b 739 701 461 808 672 758 l 739 893 b 397 1001 696 960 557 1001 b 96 833 240 1001 96 940 b 190 613 96 694 210 649 b 42 613 178 588 88 613 l 42 389 l 81 404 b 222 333 190 444 233 406 b 172 0 199 178 172 138 z "},"g":{"ha":946,"x_min":0,"x_max":0,"o":"m 539 128 b 275 44 474 33 397 44 b 132 -74 168 44 132 -3 l 132 -242 b 861 168 674 -282 808 -192 b 904 694 882 303 890 476 l 554 694 b 575 518 565 575 608 518 b 338 704 528 518 575 704 b 35 421 213 704 35 665 b 306 122 35 160 201 122 b 565 247 513 122 540 247 b 539 128 579 247 579 186 z m 340 368 b 203 440 229 368 203 403 b 340 508 203 474 229 508 b 476 440 447 508 476 474 b 340 368 476 403 447 368 z "},"ğ":{"ha":946,"x_min":0,"x_max":0,"o":"m 539 128 b 275 44 474 33 397 44 b 132 -74 168 44 132 -3 l 132 -242 b 861 168 674 -282 808 -192 b 904 694 882 303 890 476 l 554 694 b 575 518 565 575 608 518 b 338 704 528 518 575 704 b 35 421 213 704 35 665 b 306 122 35 160 201 122 b 565 247 513 122 540 247 b 539 128 579 247 579 186 z m 340 368 b 203 440 229 368 203 403 b 340 508 203 474 229 508 b 476 440 447 508 476 474 b 340 368 476 403 447 368 z m 474 831 b 603 899 525 831 561 856 b 603 943 619 915 618 932 l 575 961 b 536 951 560 971 547 967 b 474 913 517 922 500 913 b 411 951 447 913 431 922 b 372 961 400 967 388 971 l 344 943 b 340 904 329 932 326 918 b 474 831 382 857 421 831 z "},"ģ":{"ha":946,"x_min":0,"x_max":0,"o":"m 539 128 b 275 44 474 33 397 44 b 132 -74 168 44 132 -3 l 132 -242 b 861 168 674 -282 808 -192 b 904 694 882 303 890 476 l 554 694 b 575 518 565 575 608 518 b 338 704 528 518 575 704 b 35 421 213 704 35 665 b 306 122 35 160 201 122 b 565 247 513 122 540 247 b 539 128 579 247 579 186 z m 340 368 b 203 440 229 368 203 403 b 340 508 203 474 229 508 b 476 440 447 508 476 474 b 340 368 476 403 447 368 z m 408 831 l 524 831 b 551 858 542 831 551 840 l 551 944 b 524 972 551 963 542 972 l 461 972 b 482 1022 467 989 474 1006 b 472 1039 488 1032 483 1039 l 457 1039 b 440 1029 450 1039 444 1036 b 394 851 406 967 396 907 b 408 831 394 836 400 831 z "},"ġ":{"ha":946,"x_min":0,"x_max":0,"o":"m 539 128 b 275 44 474 33 397 44 b 132 -74 168 44 132 -3 l 132 -242 b 861 168 674 -282 808 -192 b 904 694 882 303 890 476 l 554 694 b 575 518 565 575 608 518 b 338 704 528 518 575 704 b 35 421 213 704 35 665 b 306 122 35 160 201 122 b 565 247 513 122 540 247 b 539 128 579 247 579 186 z m 340 368 b 203 440 229 368 203 403 b 340 508 203 474 229 508 b 476 440 447 508 476 474 b 340 368 476 403 447 368 z m 474 831 b 543 900 513 831 543 861 b 474 969 543 939 513 969 b 404 900 435 969 404 939 b 474 831 404 861 435 831 z "},"h":{"ha":925,"x_min":0,"x_max":0,"o":"m 528 0 l 883 0 b 647 707 786 261 1025 707 b 346 486 349 707 392 486 b 363 833 303 488 363 653 b 228 972 363 946 324 972 l 42 972 l 42 0 l 254 0 b 414 136 322 0 414 32 b 497 450 414 232 300 450 b 528 0 682 450 460 108 z "},"i":{"ha":433,"x_min":0,"x_max":0,"o":"m 60 694 l 60 0 l 379 0 l 381 694 b 221 656 346 694 326 656 b 60 694 113 656 97 694 z m 217 715 b 392 885 313 715 392 765 b 217 1054 392 985 313 1054 b 42 885 121 1054 42 985 b 217 715 42 765 121 715 z "},"ı":{"ha":433,"x_min":0,"x_max":0,"o":"m 60 694 l 60 0 l 379 0 l 381 694 z "},"í":{"ha":433,"x_min":0,"x_max":0,"o":"m 60 694 l 60 0 l 379 0 l 381 694 z m 186 836 l 297 924 b 300 963 313 936 313 950 l 261 1001 b 222 999 249 1014 233 1014 l 133 888 b 136 849 122 874 124 860 l 147 838 b 186 836 160 826 174 826 z "},"î":{"ha":433,"x_min":0,"x_max":0,"o":"m 60 694 l 60 0 l 379 0 l 381 694 z m 306 838 l 336 864 b 338 903 350 876 351 890 l 239 990 b 200 990 225 1003 214 1003 l 101 903 b 103 864 88 890 89 876 l 133 838 b 172 843 147 825 163 828 l 200 883 b 239 883 211 900 228 900 l 267 843 b 306 838 276 828 292 825 z "},"ï":{"ha":433,"x_min":0,"x_max":0,"o":"m 60 694 l 60 0 l 379 0 l 381 694 z m 136 819 b 206 889 175 819 206 850 b 136 958 206 928 175 958 b 67 889 97 958 67 928 b 136 819 67 850 97 819 z m 303 819 b 372 889 342 819 372 850 b 303 958 372 928 342 958 b 233 889 264 958 233 928 b 303 819 233 850 264 819 z "},"ì":{"ha":433,"x_min":0,"x_max":0,"o":"m 60 694 l 60 0 l 379 0 l 381 694 z m 290 838 l 301 849 b 304 888 314 860 315 874 l 215 999 b 176 1001 204 1014 189 1014 l 138 963 b 140 924 125 950 125 936 l 251 836 b 290 838 264 826 278 826 z "},"ī":{"ha":433,"x_min":0,"x_max":0,"o":"m 60 694 l 60 0 l 379 0 l 381 694 z m 128 833 l 311 833 b 339 861 329 833 339 843 l 339 875 b 311 903 339 893 329 903 l 128 903 b 100 875 110 903 100 893 l 100 861 b 128 833 100 843 110 833 z "},"į":{"ha":433,"x_min":0,"x_max":0,"o":"m 60 694 l 60 0 l 304 0 b 261 -108 276 -40 261 -78 b 364 -183 261 -151 288 -183 b 403 -156 393 -183 403 -174 l 403 -129 b 364 -101 403 -111 393 -101 b 318 -68 328 -101 318 -87 b 346 0 318 -50 329 -26 l 379 0 l 379 47 b 379 58 382 51 382 56 l 381 694 z m 219 819 b 289 889 258 819 289 850 b 219 958 289 928 258 958 b 150 889 181 958 150 928 b 219 819 150 850 181 819 z "},"ĩ":{"ha":433,"x_min":0,"x_max":0,"o":"m 60 694 l 60 0 l 379 0 l 381 694 z m 283 819 b 375 899 317 819 358 825 b 354 972 386 946 372 972 l 328 972 b 299 944 311 972 303 963 b 268 907 294 921 283 907 b 153 996 226 907 232 996 b 57 874 115 996 64 988 b 83 843 56 854 65 843 l 108 843 b 138 871 125 843 133 853 b 169 908 142 894 154 908 b 283 819 211 908 206 819 z "},"ĳ":{"ha":989,"x_min":0,"x_max":0,"o":"m 60 694 l 60 0 l 379 0 l 381 694 b 221 656 346 694 326 656 b 60 694 113 656 97 694 z m 217 715 b 392 885 313 715 392 765 b 217 1054 392 985 313 1054 b 42 885 121 1054 42 985 b 217 715 42 765 121 715 z m 615 694 l 615 97 b 572 10 615 32 601 10 b 475 -31 542 10 475 81 l 475 -260 b 935 74 882 -260 935 -151 l 936 694 b 776 656 901 694 882 656 b 615 694 668 656 653 694 z m 772 715 b 947 885 868 715 947 765 b 772 1054 947 985 868 1054 b 597 885 676 1054 597 985 b 772 715 597 765 676 715 z "},"j":{"ha":556,"x_min":0,"x_max":0,"o":"m 182 694 l 182 97 b 139 10 182 32 168 10 b 42 -31 108 10 42 81 l 42 -260 b 501 74 449 -260 501 -151 l 503 694 b 343 656 468 694 449 656 b 182 694 235 656 219 694 z m 339 715 b 514 885 435 715 514 765 b 339 1054 514 985 435 1054 b 164 885 243 1054 164 985 b 339 715 164 765 243 715 z "},"ȷ":{"ha":556,"x_min":0,"x_max":0,"o":"m 182 694 l 182 97 b 139 10 182 32 168 10 b 42 -31 108 10 42 81 l 42 -260 b 501 74 449 -260 501 -151 l 503 694 z "},"k":{"ha":889,"x_min":0,"x_max":0,"o":"m 804 419 l 804 694 l 629 694 b 346 486 363 694 392 486 b 363 833 303 488 363 653 b 228 972 363 946 324 972 l 42 972 l 42 0 l 254 0 b 414 136 322 0 419 32 b 418 281 411 192 413 242 b 513 135 438 364 511 257 b 619 -10 513 29 556 -10 l 847 -10 l 847 176 b 563 390 847 329 642 375 b 518 421 539 394 518 390 b 568 446 518 446 544 446 b 804 419 611 446 799 421 z "},"ķ":{"ha":889,"x_min":0,"x_max":0,"o":"m 804 419 l 804 694 l 629 694 b 346 486 363 694 392 486 b 363 833 303 488 363 653 b 228 972 363 946 324 972 l 42 972 l 42 0 l 254 0 b 414 136 322 0 419 32 b 418 281 411 192 413 242 b 513 135 438 364 511 257 b 619 -10 513 29 556 -10 l 847 -10 l 847 176 b 563 390 847 329 642 375 b 518 421 539 394 518 390 b 568 446 518 446 544 446 b 804 419 611 446 799 421 z m 472 -212 l 525 -81 b 508 -44 532 -64 526 -49 l 456 -31 b 422 -53 438 -25 425 -33 l 401 -193 b 424 -225 399 -211 407 -221 l 438 -229 b 472 -212 454 -233 467 -228 z "},"l":{"ha":403,"x_min":0,"x_max":0,"o":"m 42 1031 l 42 0 l 361 0 l 361 1031 z "},"ĺ":{"ha":403,"x_min":0,"x_max":0,"o":"m 42 1031 l 42 0 l 361 0 l 361 1031 z m 181 1163 l 292 1250 b 294 1289 307 1263 307 1276 l 256 1328 b 217 1325 243 1340 228 1340 l 128 1214 b 131 1175 117 1200 118 1186 l 142 1164 b 181 1163 154 1153 168 1153 z "},"ľ":{"ha":403,"x_min":0,"x_max":0,"o":"m 42 1031 l 42 0 l 361 0 l 361 1031 z m 515 863 l 568 994 b 551 1031 575 1011 569 1026 l 499 1044 b 465 1022 481 1050 468 1042 l 444 882 b 467 850 442 864 450 854 l 481 846 b 515 863 497 842 510 847 z "},"ļ":{"ha":403,"x_min":0,"x_max":0,"o":"m 42 1031 l 42 0 l 361 0 l 361 1031 z m 207 -242 l 260 -110 b 243 -74 267 -93 261 -78 l 190 -60 b 157 -82 172 -54 160 -62 l 136 -222 b 158 -254 133 -240 142 -250 l 172 -258 b 207 -242 189 -262 201 -257 z "},"ł":{"ha":663,"x_min":0,"x_max":0,"o":"m 167 1031 l 167 529 l 42 458 l 113 290 l 167 321 l 167 0 l 486 0 l 486 504 l 621 581 l 551 749 l 486 711 l 486 1031 z "},"m":{"ha":1367,"x_min":0,"x_max":0,"o":"m 42 0 l 254 0 b 414 136 322 0 414 32 b 497 418 414 274 321 418 b 528 0 682 418 460 108 l 875 0 b 961 418 847 111 822 418 b 992 0 1146 418 924 108 l 1324 0 b 1081 707 1324 224 1356 707 b 785 457 828 707 847 454 b 617 707 742 458 919 707 b 356 486 349 707 406 486 b 356 618 328 486 356 539 b 256 694 356 668 324 694 l 42 694 z "},"n":{"ha":925,"x_min":0,"x_max":0,"o":"m 528 0 l 883 0 b 647 708 786 261 1025 708 b 346 486 349 708 392 486 b 356 618 322 486 356 536 b 256 694 356 668 324 694 l 42 694 l 42 0 l 254 0 b 414 136 322 0 414 32 b 497 450 414 232 300 450 b 528 0 682 450 460 108 z "},"ń":{"ha":925,"x_min":0,"x_max":0,"o":"m 528 0 l 883 0 b 647 708 786 261 1025 708 b 346 486 349 708 392 486 b 356 618 322 486 356 536 b 256 694 356 668 324 694 l 42 694 l 42 0 l 254 0 b 414 136 322 0 414 32 b 497 450 414 232 300 450 b 528 0 682 450 460 108 z m 429 851 l 540 939 b 543 978 556 951 556 965 l 504 1017 b 465 1014 492 1029 476 1029 l 376 903 b 379 864 365 889 367 875 l 390 853 b 429 851 403 842 417 842 z "},"ň":{"ha":925,"x_min":0,"x_max":0,"o":"m 528 0 l 883 0 b 647 708 786 261 1025 708 b 346 486 349 708 392 486 b 356 618 322 486 356 536 b 256 694 356 668 324 694 l 42 694 l 42 0 l 254 0 b 414 136 322 0 414 32 b 497 450 414 232 300 450 b 528 0 682 450 460 108 z m 482 851 l 581 939 b 579 978 594 951 593 965 l 549 1004 b 510 999 535 1017 519 1014 l 482 958 b 443 958 471 942 454 942 l 415 999 b 376 1003 406 1014 390 1015 l 346 978 b 344 939 332 965 331 951 l 443 851 b 482 851 457 839 468 839 z "},"ņ":{"ha":925,"x_min":0,"x_max":0,"o":"m 528 0 l 883 0 b 647 708 786 261 1025 708 b 346 486 349 708 392 486 b 356 618 322 486 356 536 b 256 694 356 668 324 694 l 42 694 l 42 0 l 254 0 b 414 136 322 0 414 32 b 497 450 414 232 300 450 b 528 0 682 450 460 108 z m 457 -210 l 510 -78 b 493 -42 517 -61 511 -46 l 440 -28 b 407 -50 422 -22 410 -31 l 386 -190 b 408 -222 383 -208 392 -218 l 422 -226 b 457 -210 439 -231 451 -225 z "},"ñ":{"ha":925,"x_min":0,"x_max":0,"o":"m 528 0 l 883 0 b 647 708 786 261 1025 708 b 346 486 349 708 392 486 b 356 618 322 486 356 536 b 256 694 356 668 324 694 l 42 694 l 42 0 l 254 0 b 414 136 322 0 414 32 b 497 450 414 232 300 450 b 528 0 682 450 460 108 z m 526 835 b 618 914 560 835 601 840 b 597 988 629 961 615 988 l 571 988 b 542 960 554 988 546 978 b 511 922 538 936 526 922 b 396 1011 469 922 475 1011 b 300 889 358 1011 307 1003 b 326 858 299 869 308 858 l 351 858 b 381 886 368 858 376 868 b 413 924 385 910 397 924 b 526 835 454 924 449 835 z "},"o":{"ha":844,"x_min":0,"x_max":0,"o":"m 422 -11 b 810 353 710 -11 810 115 b 422 717 810 592 710 717 b 35 353 135 717 35 592 b 422 -11 35 115 135 -11 z m 422 314 b 197 407 243 314 197 360 b 422 499 197 453 243 499 b 647 407 601 499 647 453 b 422 314 647 360 601 314 z "},"ó":{"ha":844,"x_min":0,"x_max":0,"o":"m 422 -11 b 810 353 710 -11 810 115 b 422 717 810 592 710 717 b 35 353 135 717 35 592 b 422 -11 35 115 135 -11 z m 422 314 b 197 407 243 314 197 360 b 422 499 197 453 243 499 b 647 407 601 499 647 453 b 422 314 647 360 601 314 z m 389 871 l 500 958 b 503 997 515 971 515 985 l 464 1036 b 425 1033 451 1049 436 1049 l 336 922 b 339 883 325 908 326 894 l 350 872 b 389 871 363 861 376 861 z "},"ô":{"ha":844,"x_min":0,"x_max":0,"o":"m 422 -11 b 810 353 710 -11 810 115 b 422 717 810 592 710 717 b 35 353 135 717 35 592 b 422 -11 35 115 135 -11 z m 422 314 b 197 407 243 314 197 360 b 422 499 197 453 243 499 b 647 407 601 499 647 453 b 422 314 647 360 601 314 z m 508 872 l 539 899 b 540 938 553 911 554 925 l 442 1025 b 403 1025 428 1038 417 1038 l 304 938 b 306 899 290 925 292 911 l 336 872 b 375 878 350 860 365 863 l 403 918 b 442 918 414 935 431 935 l 469 878 b 508 872 479 863 494 860 z "},"ö":{"ha":844,"x_min":0,"x_max":0,"o":"m 422 -11 b 810 353 710 -11 810 115 b 422 717 810 592 710 717 b 35 353 135 717 35 592 b 422 -11 35 115 135 -11 z m 422 314 b 197 407 243 314 197 360 b 422 499 197 453 243 499 b 647 407 601 499 647 453 b 422 314 647 360 601 314 z m 339 854 b 408 924 378 854 408 885 b 339 993 408 963 378 993 b 269 924 300 993 269 963 b 339 854 269 885 300 854 z m 506 854 b 575 924 544 854 575 885 b 506 993 575 963 544 993 b 436 924 467 993 436 963 b 506 854 436 885 467 854 z "},"ò":{"ha":844,"x_min":0,"x_max":0,"o":"m 422 -11 b 810 353 710 -11 810 115 b 422 717 810 592 710 717 b 35 353 135 717 35 592 b 422 -11 35 115 135 -11 z m 422 314 b 197 407 243 314 197 360 b 422 499 197 453 243 499 b 647 407 601 499 647 453 b 422 314 647 360 601 314 z m 493 872 l 504 883 b 507 922 517 894 518 908 l 418 1033 b 379 1036 407 1049 392 1049 l 340 997 b 343 958 328 985 328 971 l 454 871 b 493 872 467 861 481 861 z "},"ő":{"ha":844,"x_min":0,"x_max":0,"o":"m 422 -11 b 810 353 710 -11 810 115 b 422 717 810 592 710 717 b 35 353 135 717 35 592 b 422 -11 35 115 135 -11 z m 422 314 b 197 407 243 314 197 360 b 422 499 197 453 243 499 b 647 407 601 499 647 453 b 422 314 647 360 601 314 z m 325 874 l 419 979 b 415 1018 432 993 431 1007 l 369 1050 b 332 1040 354 1061 340 1057 l 264 917 b 274 878 256 901 260 888 l 286 869 b 325 874 300 860 314 861 z m 478 874 l 572 979 b 568 1018 585 993 583 1007 l 522 1050 b 485 1040 507 1061 493 1057 l 417 917 b 426 878 408 901 413 888 l 439 869 b 478 874 453 860 467 861 z "},"ō":{"ha":844,"x_min":0,"x_max":0,"o":"m 422 -11 b 810 353 710 -11 810 115 b 422 717 810 592 710 717 b 35 353 135 717 35 592 b 422 -11 35 115 135 -11 z m 422 314 b 197 407 243 314 197 360 b 422 499 197 453 243 499 b 647 407 601 499 647 453 b 422 314 647 360 601 314 z m 331 868 l 514 868 b 542 896 532 868 542 878 l 542 910 b 514 938 542 928 532 938 l 331 938 b 303 910 313 938 303 928 l 303 896 b 331 868 303 878 313 868 z "},"ø":{"ha":844,"x_min":0,"x_max":0,"o":"m 422 -11 b 810 353 710 -11 810 115 b 681 658 810 497 774 600 l 763 792 b 731 815 771 806 756 815 l 618 815 b 582 796 597 815 590 810 l 529 710 b 422 717 497 714 461 717 b 35 353 135 717 35 592 b 135 69 35 225 64 131 l 69 -36 b 100 -61 61 -51 76 -61 l 213 -61 b 249 -40 233 -61 240 -54 l 275 3 b 422 -11 318 -7 367 -11 z m 197 407 b 399 499 197 451 239 494 l 292 325 b 197 407 219 342 197 374 z m 468 315 l 571 482 b 647 407 629 464 647 436 b 468 315 647 364 610 322 z "},"õ":{"ha":844,"x_min":0,"x_max":0,"o":"m 422 -11 b 810 353 710 -11 810 115 b 422 717 810 592 710 717 b 35 353 135 717 35 592 b 422 -11 35 115 135 -11 z m 422 314 b 197 407 243 314 197 360 b 422 499 197 453 243 499 b 647 407 601 499 647 453 b 422 314 647 360 601 314 z m 486 854 b 578 933 519 854 561 860 b 557 1007 589 981 575 1007 l 531 1007 b 501 979 514 1007 506 997 b 471 942 497 956 486 942 b 356 1031 429 942 435 1031 b 260 908 318 1031 267 1022 b 286 878 258 889 268 878 l 311 878 b 340 906 328 878 336 888 b 372 943 344 929 357 943 b 486 854 414 943 408 854 z "},"œ":{"ha":1446,"x_min":0,"x_max":0,"o":"m 422 -11 b 731 89 572 -11 671 24 b 1078 -11 796 24 906 -11 b 1411 122 1188 -11 1354 35 l 1411 354 b 1101 226 1343 297 1258 225 b 889 325 933 226 889 303 b 1085 294 889 363 933 294 b 1354 494 1258 294 1354 372 b 1035 717 1354 642 1224 717 b 729 619 888 717 789 683 b 422 717 668 683 569 717 b 35 353 135 717 35 592 b 422 -11 35 115 135 -11 z m 422 314 b 197 407 243 314 197 360 b 422 499 197 453 243 499 b 647 407 601 499 647 453 b 422 314 647 360 601 314 z m 901 461 b 1047 515 901 496 954 515 b 1192 461 1136 515 1192 496 b 1042 401 1192 418 1136 401 b 901 461 954 401 901 422 z "},"p":{"ha":919,"x_min":0,"x_max":0,"o":"m 228 694 l 42 694 l 42 -278 l 228 -278 b 363 -139 324 -278 363 -251 b 347 201 363 42 303 200 b 608 -12 406 203 349 -12 b 885 344 822 -12 885 168 b 585 708 885 557 806 706 b 349 576 375 710 397 576 b 228 694 296 576 400 694 z m 569 478 b 747 372 713 478 747 425 b 569 271 747 321 713 271 b 393 372 429 271 393 321 b 569 478 393 425 429 478 z "},"þ":{"ha":974,"x_min":0,"x_max":0,"o":"m 592 463 b 788 365 750 463 788 413 b 592 274 788 319 750 274 b 399 365 439 274 399 319 b 592 463 399 413 439 463 z m 42 -278 l 260 -278 b 422 -140 328 -278 428 -239 l 397 210 l 399 210 b 651 13 411 211 439 13 b 939 339 869 13 939 178 b 622 674 939 535 851 671 b 381 551 421 676 406 551 b 379 861 376 653 376 757 b 274 972 382 960 350 972 l 42 972 z "},"q":{"ha":919,"x_min":0,"x_max":0,"o":"m 878 694 l 692 694 b 571 576 519 694 624 576 b 335 708 522 576 544 710 b 35 344 114 706 35 557 b 311 -12 35 168 97 -12 b 572 201 571 -12 514 203 b 557 -139 617 200 557 42 b 692 -278 557 -251 596 -278 l 878 -278 z m 350 478 b 526 372 490 478 526 425 b 350 271 526 321 490 271 b 172 372 207 271 172 321 b 350 478 172 425 207 478 z "},"r":{"ha":807,"x_min":0,"x_max":0,"o":"m 765 299 l 765 686 b 635 708 744 696 721 708 b 356 486 349 708 406 486 b 356 618 328 486 356 539 b 256 694 356 668 324 694 l 42 694 l 42 0 l 254 0 b 414 136 322 0 414 32 b 497 418 414 274 321 418 b 765 299 642 418 646 299 z "},"ŕ":{"ha":807,"x_min":0,"x_max":0,"o":"m 765 299 l 765 686 b 635 708 744 696 721 708 b 356 486 349 708 406 486 b 356 618 328 486 356 539 b 256 694 356 668 324 694 l 42 694 l 42 0 l 254 0 b 414 136 322 0 414 32 b 497 418 414 274 321 418 b 765 299 642 418 646 299 z m 393 853 l 504 940 b 507 979 519 953 519 967 l 468 1018 b 429 1015 456 1031 440 1031 l 340 904 b 343 865 329 890 331 876 l 354 854 b 393 853 367 843 381 843 z "},"ř":{"ha":807,"x_min":0,"x_max":0,"o":"m 765 299 l 765 686 b 635 708 744 696 721 708 b 356 486 349 708 406 486 b 356 618 328 486 356 539 b 256 694 356 668 324 694 l 42 694 l 42 0 l 254 0 b 414 136 322 0 414 32 b 497 418 414 274 321 418 b 765 299 642 418 646 299 z m 446 853 l 544 940 b 543 979 558 953 557 967 l 513 1006 b 474 1000 499 1018 483 1015 l 446 960 b 407 960 435 943 418 943 l 379 1000 b 340 1004 369 1015 354 1017 l 310 979 b 308 940 296 967 294 953 l 407 853 b 446 853 421 840 432 840 z "},"ŗ":{"ha":807,"x_min":0,"x_max":0,"o":"m 765 299 l 765 686 b 635 708 744 696 721 708 b 356 486 349 708 406 486 b 356 618 328 486 356 539 b 256 694 356 668 324 694 l 42 694 l 42 0 l 254 0 b 414 136 322 0 414 32 b 497 418 414 274 321 418 b 765 299 642 418 646 299 z m 197 -212 l 250 -81 b 233 -44 257 -64 251 -49 l 181 -31 b 147 -53 163 -25 150 -33 l 126 -193 b 149 -225 124 -211 132 -221 l 163 -229 b 197 -212 179 -233 192 -228 z "},"s":{"ha":804,"x_min":0,"x_max":0,"o":"m 635 458 l 733 617 b 28 461 599 764 28 746 b 428 278 28 206 400 333 b 126 242 458 214 228 214 l 28 83 b 776 226 132 -51 776 -82 b 346 422 776 524 372 371 b 635 458 304 504 576 488 z "},"ś":{"ha":804,"x_min":0,"x_max":0,"o":"m 635 458 l 733 617 b 28 461 599 764 28 746 b 428 278 28 206 400 333 b 126 242 458 214 228 214 l 28 83 b 776 226 132 -51 776 -82 b 346 422 776 524 372 371 b 635 458 304 504 576 488 z m 369 854 l 481 942 b 483 981 496 954 496 968 l 444 1019 b 406 1017 432 1032 417 1032 l 317 906 b 319 867 306 892 307 878 l 331 856 b 369 854 343 844 357 844 z "},"š":{"ha":804,"x_min":0,"x_max":0,"o":"m 635 458 l 733 617 b 28 461 599 764 28 746 b 428 278 28 206 400 333 b 126 242 458 214 228 214 l 28 83 b 776 226 132 -51 776 -82 b 346 422 776 524 372 371 b 635 458 304 504 576 488 z m 422 854 l 521 942 b 519 981 535 954 533 968 l 489 1007 b 450 1001 475 1019 460 1017 l 422 961 b 383 961 411 944 394 944 l 356 1001 b 317 1006 346 1017 331 1018 l 286 981 b 285 942 272 968 271 954 l 383 854 b 422 854 397 842 408 842 z "},"ş":{"ha":804,"x_min":0,"x_max":0,"o":"m 635 458 l 733 617 b 28 461 599 764 28 746 b 428 278 28 206 400 333 b 126 242 458 214 228 214 l 28 83 b 389 -14 75 22 231 -17 l 383 -57 b 414 -86 381 -82 386 -85 b 460 -111 447 -87 460 -99 b 400 -136 460 -124 444 -136 b 368 -164 374 -136 368 -144 l 368 -176 b 400 -204 368 -196 374 -204 b 524 -117 488 -204 524 -164 b 456 -47 524 -79 501 -56 b 431 -17 436 -44 428 -35 l 431 -12 b 776 226 610 0 776 69 b 346 422 776 524 372 371 b 635 458 304 504 576 488 z "},"ș":{"ha":804,"x_min":0,"x_max":0,"o":"m 635 458 l 733 617 b 28 461 599 764 28 746 b 428 278 28 206 400 333 b 126 242 458 214 228 214 l 28 83 b 776 226 132 -51 776 -82 b 346 422 776 524 372 371 b 635 458 304 504 576 488 z m 451 -208 l 504 -76 b 488 -40 511 -60 506 -44 l 435 -26 b 401 -49 417 -21 404 -29 l 381 -189 b 403 -221 378 -207 386 -217 l 417 -225 b 451 -208 433 -229 446 -224 z "},"ß":{"ha":928,"x_min":0,"x_max":0,"o":"m 42 351 l 42 0 l 211 0 b 372 133 288 0 372 22 b 360 572 372 288 363 390 b 457 675 360 642 397 675 b 547 608 515 675 547 654 b 465 539 547 563 457 543 l 465 443 b 579 374 468 442 579 428 b 465 314 579 294 475 310 l 465 -7 b 886 261 525 -21 886 -1 b 679 476 886 425 772 461 b 635 497 654 481 639 485 l 635 503 b 692 536 635 519 650 519 b 835 743 772 567 835 618 b 475 972 835 849 744 972 b 42 351 274 972 42 888 z "},"t":{"ha":781,"x_min":0,"x_max":0,"o":"m 563 896 l 208 896 b 42 679 228 643 174 703 l 42 456 b 197 479 88 456 185 504 b 96 203 213 451 96 347 b 397 -10 96 10 240 -10 b 739 57 557 -10 714 18 l 739 249 b 488 318 672 192 488 196 b 739 456 488 389 524 456 l 739 729 b 496 653 610 729 528 618 b 563 896 469 682 539 671 z "},"ť":{"ha":781,"x_min":0,"x_max":0,"o":"m 563 896 l 208 896 b 42 679 228 643 174 703 l 42 456 b 197 479 88 456 185 504 b 96 203 213 451 96 347 b 397 -10 96 10 240 -10 b 739 57 557 -10 714 18 l 739 249 b 488 318 672 192 488 196 b 739 456 488 389 524 456 l 739 729 b 496 653 610 729 528 618 b 563 896 469 682 539 671 z m 856 799 l 908 931 b 892 967 915 947 910 963 l 839 981 b 806 958 821 986 808 978 l 785 818 b 807 786 782 800 790 790 l 821 782 b 856 799 838 778 850 783 z "},"ţ":{"ha":781,"x_min":0,"x_max":0,"o":"m 563 896 l 208 896 b 42 679 228 643 174 703 l 42 456 b 197 479 88 456 185 504 b 96 203 213 451 96 347 b 371 -10 96 21 224 -7 l 364 -60 b 394 -89 361 -85 367 -87 b 440 -114 428 -90 440 -101 b 381 -139 440 -126 425 -139 b 349 -167 354 -139 349 -147 l 349 -179 b 381 -207 349 -199 354 -207 b 504 -119 468 -207 504 -167 b 436 -50 504 -82 482 -58 b 411 -19 417 -47 408 -37 l 413 -10 b 739 57 567 -8 715 19 l 739 249 b 488 318 672 192 488 196 b 739 456 488 389 524 456 l 739 729 b 496 653 610 729 528 618 b 563 896 469 682 539 671 z "},"ț":{"ha":781,"x_min":0,"x_max":0,"o":"m 563 896 l 208 896 b 42 679 228 643 174 703 l 42 456 b 197 479 88 456 185 504 b 96 203 213 451 96 347 b 397 -10 96 10 240 -10 b 739 57 557 -10 714 18 l 739 249 b 488 318 672 192 488 196 b 739 456 488 389 524 456 l 739 729 b 496 653 610 729 528 618 b 563 896 469 682 539 671 z m 432 -211 l 485 -79 b 468 -43 492 -62 486 -47 l 415 -29 b 382 -51 397 -24 385 -32 l 361 -192 b 383 -224 358 -210 367 -219 l 397 -228 b 432 -211 414 -232 426 -226 z "},"u":{"ha":929,"x_min":0,"x_max":0,"o":"m 401 694 l 46 694 b 282 -11 46 249 -7 -11 b 583 208 581 -11 538 208 b 574 76 607 208 574 158 b 674 0 574 26 606 0 l 888 0 l 888 694 l 675 694 b 515 558 607 694 515 663 b 432 244 515 463 629 244 b 401 694 247 244 469 586 z "},"ú":{"ha":929,"x_min":0,"x_max":0,"o":"m 401 694 l 46 694 b 282 -11 46 249 -7 -11 b 583 208 581 -11 538 208 b 574 76 607 208 574 158 b 674 0 574 26 606 0 l 888 0 l 888 694 l 675 694 b 515 558 607 694 515 663 b 432 244 515 463 629 244 b 401 694 247 244 469 586 z m 453 851 l 564 939 b 567 978 579 951 579 965 l 528 1017 b 489 1014 515 1029 500 1029 l 400 903 b 403 864 389 889 390 875 l 414 853 b 453 851 426 842 440 842 z "},"û":{"ha":929,"x_min":0,"x_max":0,"o":"m 401 694 l 46 694 b 282 -11 46 249 -7 -11 b 583 208 581 -11 538 208 b 574 76 607 208 574 158 b 674 0 574 26 606 0 l 888 0 l 888 694 l 675 694 b 515 558 607 694 515 663 b 432 244 515 463 629 244 b 401 694 247 244 469 586 z m 572 853 l 603 879 b 604 918 617 892 618 906 l 506 1006 b 467 1006 492 1018 481 1018 l 368 918 b 369 879 354 906 356 892 l 400 853 b 439 858 414 840 429 843 l 467 899 b 506 899 478 915 494 915 l 533 858 b 572 853 543 843 558 840 z "},"ü":{"ha":929,"x_min":0,"x_max":0,"o":"m 401 694 l 46 694 b 282 -11 46 249 -7 -11 b 583 208 581 -11 538 208 b 574 76 607 208 574 158 b 674 0 574 26 606 0 l 888 0 l 888 694 l 675 694 b 515 558 607 694 515 663 b 432 244 515 463 629 244 b 401 694 247 244 469 586 z m 403 835 b 472 904 442 835 472 865 b 403 974 472 943 442 974 b 333 904 364 974 333 943 b 403 835 333 865 364 835 z m 569 835 b 639 904 608 835 639 865 b 569 974 639 943 608 974 b 500 904 531 974 500 943 b 569 835 500 865 531 835 z "},"ù":{"ha":929,"x_min":0,"x_max":0,"o":"m 401 694 l 46 694 b 282 -11 46 249 -7 -11 b 583 208 581 -11 538 208 b 574 76 607 208 574 158 b 674 0 574 26 606 0 l 888 0 l 888 694 l 675 694 b 515 558 607 694 515 663 b 432 244 515 463 629 244 b 401 694 247 244 469 586 z m 557 853 l 568 864 b 571 903 581 875 582 889 l 482 1014 b 443 1017 471 1029 456 1029 l 404 978 b 407 939 392 965 392 951 l 518 851 b 557 853 531 842 544 842 z "},"ű":{"ha":929,"x_min":0,"x_max":0,"o":"m 401 694 l 46 694 b 282 -11 46 249 -7 -11 b 583 208 581 -11 538 208 b 574 76 607 208 574 158 b 674 0 574 26 606 0 l 888 0 l 888 694 l 675 694 b 515 558 607 694 515 663 b 432 244 515 463 629 244 b 401 694 247 244 469 586 z m 389 854 l 483 960 b 479 999 496 974 494 988 l 433 1031 b 396 1021 418 1042 404 1038 l 328 897 b 338 858 319 882 324 868 l 350 850 b 389 854 364 840 378 842 z m 542 854 l 636 960 b 632 999 649 974 647 988 l 586 1031 b 549 1021 571 1042 557 1038 l 481 897 b 490 858 472 882 476 868 l 503 850 b 542 854 517 840 531 842 z "},"ū":{"ha":929,"x_min":0,"x_max":0,"o":"m 401 694 l 46 694 b 282 -11 46 249 -7 -11 b 583 208 581 -11 538 208 b 574 76 607 208 574 158 b 674 0 574 26 606 0 l 888 0 l 888 694 l 675 694 b 515 558 607 694 515 663 b 432 244 515 463 629 244 b 401 694 247 244 469 586 z m 394 849 l 578 849 b 606 876 596 849 606 858 l 606 890 b 578 918 606 908 596 918 l 394 918 b 367 890 376 918 367 908 l 367 876 b 394 849 367 858 376 849 z "},"ų":{"ha":929,"x_min":0,"x_max":0,"o":"m 401 694 l 46 694 b 282 -11 46 249 -7 -11 b 583 208 581 -11 538 208 b 574 76 607 208 574 158 b 674 0 574 26 606 0 l 803 0 b 763 -106 776 -40 763 -76 b 865 -181 763 -149 789 -181 b 904 -153 894 -181 904 -171 l 904 -126 b 865 -99 904 -108 894 -99 b 819 -65 829 -99 819 -85 b 846 0 819 -49 831 -25 l 888 0 l 888 694 l 675 694 b 515 558 607 694 515 663 b 432 244 515 463 629 244 b 401 694 247 244 469 586 z "},"ů":{"ha":929,"x_min":0,"x_max":0,"o":"m 401 694 l 46 694 b 282 -11 46 249 -7 -11 b 583 208 581 -11 538 208 b 574 76 607 208 574 158 b 674 0 574 26 606 0 l 888 0 l 888 694 l 675 694 b 515 558 607 694 515 663 b 432 244 515 463 629 244 b 401 694 247 244 469 586 z m 486 835 b 594 944 546 835 594 883 b 486 1053 594 1004 546 1053 b 376 944 425 1053 376 1004 b 486 835 376 883 425 835 z m 486 886 b 428 944 454 886 428 913 b 486 1001 428 975 454 1001 b 543 944 517 1001 543 975 b 486 886 543 913 517 886 z "},"ũ":{"ha":929,"x_min":0,"x_max":0,"o":"m 401 694 l 46 694 b 282 -11 46 249 -7 -11 b 583 208 581 -11 538 208 b 574 76 607 208 574 158 b 674 0 574 26 606 0 l 888 0 l 888 694 l 675 694 b 515 558 607 694 515 663 b 432 244 515 463 629 244 b 401 694 247 244 469 586 z m 550 835 b 642 914 583 835 625 840 b 621 988 653 961 639 988 l 594 988 b 565 960 578 988 569 978 b 535 922 561 936 550 922 b 419 1011 493 922 499 1011 b 324 889 382 1011 331 1003 b 350 858 322 869 332 858 l 375 858 b 404 886 392 858 400 868 b 436 924 408 910 421 924 b 550 835 478 924 472 835 z "},"v":{"ha":888,"x_min":0,"x_max":0,"o":"m 646 0 l 853 694 l 565 694 b 551 678 551 694 549 688 b 535 278 579 482 564 369 b 407 294 507 211 413 233 b 335 694 419 517 526 694 l 35 694 l 242 0 z "},"w":{"ha":1292,"x_min":0,"x_max":0,"o":"m 596 0 b 647 167 647 0 604 167 b 696 0 689 167 647 0 l 1067 0 l 1257 694 l 982 694 b 915 307 810 694 900 522 b 865 243 918 272 894 243 b 786 625 739 243 771 526 l 506 625 b 443 238 522 528 554 239 b 376 307 403 238 375 264 b 310 694 392 522 482 694 l 35 694 l 225 0 z "},"ẃ":{"ha":1292,"x_min":0,"x_max":0,"o":"m 596 0 b 647 167 647 0 604 167 b 696 0 689 167 647 0 l 1067 0 l 1257 694 l 982 694 b 915 307 810 694 900 522 b 865 243 918 272 894 243 b 786 625 739 243 771 526 l 506 625 b 443 238 522 528 554 239 b 376 307 403 238 375 264 b 310 694 392 522 482 694 l 35 694 l 225 0 z m 613 776 l 724 864 b 726 903 739 876 739 890 l 688 942 b 649 939 675 954 660 954 l 560 828 b 563 789 549 814 550 800 l 574 778 b 613 776 586 767 600 767 z "},"ŵ":{"ha":1292,"x_min":0,"x_max":0,"o":"m 596 0 b 647 167 647 0 604 167 b 696 0 689 167 647 0 l 1067 0 l 1257 694 l 982 694 b 915 307 810 694 900 522 b 865 243 918 272 894 243 b 786 625 739 243 771 526 l 506 625 b 443 238 522 528 554 239 b 376 307 403 238 375 264 b 310 694 392 522 482 694 l 35 694 l 225 0 z m 732 778 l 763 804 b 764 843 776 817 778 831 l 665 931 b 626 931 651 943 640 943 l 528 843 b 529 804 514 831 515 817 l 560 778 b 599 783 574 765 589 768 l 626 824 b 665 824 638 840 654 840 l 693 783 b 732 778 703 768 718 765 z "},"ẅ":{"ha":1292,"x_min":0,"x_max":0,"o":"m 596 0 b 647 167 647 0 604 167 b 696 0 689 167 647 0 l 1067 0 l 1257 694 l 982 694 b 915 307 810 694 900 522 b 865 243 918 272 894 243 b 786 625 739 243 771 526 l 506 625 b 443 238 522 528 554 239 b 376 307 403 238 375 264 b 310 694 392 522 482 694 l 35 694 l 225 0 z m 563 760 b 632 829 601 760 632 790 b 563 899 632 868 601 899 b 493 829 524 899 493 868 b 563 760 493 790 524 760 z m 729 760 b 799 829 768 760 799 790 b 729 899 799 868 768 899 b 660 829 690 899 660 868 b 729 760 660 790 690 760 z "},"ẁ":{"ha":1292,"x_min":0,"x_max":0,"o":"m 596 0 b 647 167 647 0 604 167 b 696 0 689 167 647 0 l 1067 0 l 1257 694 l 982 694 b 915 307 810 694 900 522 b 865 243 918 272 894 243 b 786 625 739 243 771 526 l 506 625 b 443 238 522 528 554 239 b 376 307 403 238 375 264 b 310 694 392 522 482 694 l 35 694 l 225 0 z m 717 778 l 728 789 b 731 828 740 800 742 814 l 642 939 b 603 942 631 954 615 954 l 564 903 b 567 864 551 890 551 876 l 678 776 b 717 778 690 767 704 767 z "},"x":{"ha":997,"x_min":0,"x_max":0,"o":"m 461 694 l 46 694 b 294 343 46 547 156 343 b 42 0 94 343 42 165 l 433 0 b 467 251 433 79 347 251 b 531 0 564 251 531 99 l 956 0 b 657 367 956 165 801 367 b 915 694 849 389 915 515 l 568 694 b 529 439 568 618 635 439 b 461 694 436 439 461 585 z "},"y":{"ha":961,"x_min":0,"x_max":0,"o":"m 147 39 l 147 -242 b 919 693 892 -297 868 -107 l 496 693 b 519 369 507 568 597 369 b 385 693 429 369 385 403 l 42 693 l 50 529 b 450 142 68 160 267 46 b 569 203 519 181 569 267 b 147 39 569 67 446 -25 z "},"ý":{"ha":961,"x_min":0,"x_max":0,"o":"m 147 39 l 147 -242 b 919 693 892 -297 868 -107 l 496 693 b 519 369 507 568 597 369 b 385 693 429 369 385 403 l 42 693 l 50 529 b 450 142 68 160 267 46 b 569 203 519 181 569 267 b 147 39 569 67 446 -25 z m 406 839 l 517 926 b 519 965 532 939 532 953 l 481 1004 b 442 1001 468 1017 453 1017 l 353 890 b 356 851 342 876 343 863 l 367 840 b 406 839 379 829 393 829 z "},"ŷ":{"ha":961,"x_min":0,"x_max":0,"o":"m 147 39 l 147 -242 b 919 693 892 -297 868 -107 l 496 693 b 519 369 507 568 597 369 b 385 693 429 369 385 403 l 42 693 l 50 529 b 450 142 68 160 267 46 b 569 203 519 181 569 267 b 147 39 569 67 446 -25 z m 525 840 l 556 867 b 557 906 569 879 571 893 l 458 993 b 419 993 444 1006 433 1006 l 321 906 b 322 867 307 893 308 879 l 353 840 b 392 846 367 828 382 831 l 419 886 b 458 886 431 903 447 903 l 486 846 b 525 840 496 831 511 828 z "},"ÿ":{"ha":961,"x_min":0,"x_max":0,"o":"m 147 39 l 147 -242 b 919 693 892 -297 868 -107 l 496 693 b 519 369 507 568 597 369 b 385 693 429 369 385 403 l 42 693 l 50 529 b 450 142 68 160 267 46 b 569 203 519 181 569 267 b 147 39 569 67 446 -25 z m 356 822 b 425 892 394 822 425 853 b 356 961 425 931 394 961 b 286 892 317 961 286 931 b 356 822 286 853 317 822 z m 522 822 b 592 892 561 822 592 853 b 522 961 592 931 561 961 b 453 892 483 961 453 931 b 522 822 453 853 483 822 z "},"ỳ":{"ha":961,"x_min":0,"x_max":0,"o":"m 147 39 l 147 -242 b 919 693 892 -297 868 -107 l 496 693 b 519 369 507 568 597 369 b 385 693 429 369 385 403 l 42 693 l 50 529 b 450 142 68 160 267 46 b 569 203 519 181 569 267 b 147 39 569 67 446 -25 z m 510 840 l 521 851 b 524 890 533 863 535 876 l 435 1001 b 396 1004 424 1017 408 1017 l 357 965 b 360 926 344 953 344 939 l 471 839 b 510 840 483 829 497 829 z "},"ỹ":{"ha":961,"x_min":0,"x_max":0,"o":"m 147 39 l 147 -242 b 919 693 892 -297 868 -107 l 496 693 b 519 369 507 568 597 369 b 385 693 429 369 385 403 l 42 693 l 50 529 b 450 142 68 160 267 46 b 569 203 519 181 569 267 b 147 39 569 67 446 -25 z m 503 822 b 594 901 536 822 578 828 b 574 975 606 949 592 975 l 547 975 b 518 947 531 975 522 965 b 488 910 514 924 503 910 b 372 999 446 910 451 999 b 276 876 335 999 283 990 b 303 846 275 857 285 846 l 328 846 b 357 874 344 846 353 856 b 389 911 361 897 374 911 b 503 822 431 911 425 822 z "},"z":{"ha":826,"x_min":0,"x_max":0,"o":"m 790 -8 l 790 147 b 686 272 790 194 764 272 b 331 210 557 272 331 103 b 790 615 331 363 790 192 l 790 696 l 36 696 l 36 578 b 426 503 36 278 426 658 b 36 182 426 375 36 511 l 36 -8 z "},"ź":{"ha":826,"x_min":0,"x_max":0,"o":"m 790 -8 l 790 147 b 686 272 790 194 764 272 b 331 210 557 272 331 103 b 790 615 331 363 790 192 l 790 696 l 36 696 l 36 578 b 426 503 36 278 426 658 b 36 182 426 375 36 511 l 36 -8 z m 401 839 l 513 926 b 515 965 528 939 528 953 l 476 1004 b 438 1001 464 1017 449 1017 l 349 890 b 351 851 338 876 339 863 l 363 840 b 401 839 375 829 389 829 z "},"ž":{"ha":826,"x_min":0,"x_max":0,"o":"m 790 -8 l 790 147 b 686 272 790 194 764 272 b 331 210 557 272 331 103 b 790 615 331 363 790 192 l 790 696 l 36 696 l 36 578 b 426 503 36 278 426 658 b 36 182 426 375 36 511 l 36 -8 z m 454 839 l 553 926 b 551 965 567 939 565 953 l 521 992 b 482 986 507 1004 492 1001 l 454 946 b 415 946 443 929 426 929 l 388 986 b 349 990 378 1001 363 1003 l 318 965 b 317 926 304 953 303 939 l 415 839 b 454 839 429 826 440 826 z "},"ż":{"ha":826,"x_min":0,"x_max":0,"o":"m 790 -8 l 790 147 b 686 272 790 194 764 272 b 331 210 557 272 331 103 b 790 615 331 363 790 192 l 790 696 l 36 696 l 36 578 b 426 503 36 278 426 658 b 36 182 426 375 36 511 l 36 -8 z m 435 822 b 504 892 474 822 504 853 b 435 961 504 931 474 961 b 365 892 396 961 365 931 b 435 822 365 853 396 822 z "},".":{"ha":390,"x_min":0,"x_max":0,"o":"m 194 -7 b 349 146 281 -7 349 61 b 194 300 349 232 281 300 b 42 146 110 300 42 232 b 194 -7 42 61 110 -7 z "},",":{"ha":349,"x_min":0,"x_max":0,"o":"m 197 -151 b 300 144 238 -96 279 -8 b 278 210 306 186 296 210 l 101 210 b 74 181 83 210 74 200 b 49 -107 72 44 63 -44 b 67 -140 44 -124 50 -135 l 142 -167 b 197 -151 164 -175 183 -169 z "},":":{"ha":390,"x_min":0,"x_max":0,"o":"m 194 -7 b 349 146 281 -7 349 61 b 194 300 349 232 281 300 b 42 146 110 300 42 232 b 194 -7 42 61 110 -7 z m 194 376 b 349 529 281 376 349 444 b 194 683 349 615 281 683 b 42 529 110 683 42 615 b 194 376 42 444 110 376 z "},";":{"ha":390,"x_min":0,"x_max":0,"o":"m 194 376 b 349 529 281 376 349 444 b 194 683 349 615 281 683 b 42 529 110 683 42 615 b 194 376 42 444 110 376 z m 197 -151 b 300 144 238 -96 279 -8 b 278 210 306 186 296 210 l 101 210 b 74 181 83 210 74 200 b 49 -107 72 44 63 -44 b 67 -140 44 -124 50 -135 l 142 -167 b 197 -151 164 -175 183 -169 z "},"…":{"ha":390,"x_min":0,"x_max":0,"o":"m 194 -7 b 349 146 281 -7 349 61 b 194 300 349 232 281 300 b 42 146 110 300 42 232 b 194 -7 42 61 110 -7 z "},"!":{"ha":390,"x_min":0,"x_max":0,"o":"m 194 -7 b 349 146 281 -7 349 61 b 194 300 349 232 281 300 b 42 146 110 300 42 232 b 194 -7 42 61 110 -7 z m 71 404 l 328 404 l 328 989 l 71 989 z "},"¡":{"ha":390,"x_min":0,"x_max":0,"o":"m 194 711 b 42 558 110 711 42 643 b 194 404 42 472 110 404 b 349 558 281 404 349 472 b 194 711 349 643 281 711 z m 71 300 l 71 -285 l 328 -285 l 328 300 z "},"?":{"ha":829,"x_min":0,"x_max":0,"o":"m 282 -7 b 436 146 368 -7 436 61 b 282 300 436 232 368 300 b 129 146 197 300 129 232 b 282 -7 129 61 197 -7 z m 106 369 l 461 369 b 788 790 461 576 788 625 b 472 985 788 935 672 985 b 43 917 224 985 121 958 l 42 685 b 407 694 258 761 407 776 b 106 369 407 599 106 563 z "},"¿":{"ha":829,"x_min":0,"x_max":0,"o":"m 547 707 b 393 554 461 707 393 639 b 547 400 393 468 461 400 b 700 554 632 400 700 468 b 547 707 700 639 632 707 z m 724 331 l 368 331 b 42 -90 368 124 42 75 b 357 -285 42 -235 157 -285 b 786 -217 606 -285 708 -258 l 788 15 b 422 6 571 -61 422 -76 b 724 331 422 101 724 138 z "},"·":{"ha":397,"x_min":0,"x_max":0,"o":"m 199 314 b 356 471 286 314 356 383 b 199 628 356 558 286 628 b 42 471 111 628 42 558 b 199 314 42 383 111 314 z "},"•":{"ha":533,"x_min":0,"x_max":0,"o":"m 267 246 b 492 471 392 246 492 346 b 267 696 492 596 392 696 b 42 471 142 696 42 596 b 267 246 42 346 142 246 z "},"*":{"ha":611,"x_min":0,"x_max":0,"o":"m 268 503 l 343 503 b 371 533 363 503 374 514 l 347 697 l 486 596 b 529 606 503 583 518 589 l 565 664 b 550 704 575 681 569 696 l 389 767 l 550 829 b 565 869 569 838 575 853 l 529 928 b 486 938 518 944 503 950 l 347 835 l 371 1000 b 343 1031 374 1019 363 1031 l 268 1031 b 240 1000 249 1031 238 1019 l 264 835 l 125 938 b 82 928 108 950 93 944 l 46 869 b 61 829 36 853 42 838 l 222 767 l 61 704 b 46 664 42 696 36 681 l 82 606 b 125 596 93 589 108 583 l 264 697 l 240 533 b 268 503 238 514 249 503 z "},"#":{"ha":836,"x_min":0,"x_max":0,"o":"m 142 0 l 225 0 b 271 26 251 0 268 8 l 315 235 l 399 235 l 354 29 b 396 0 351 11 368 0 l 482 0 b 529 26 508 0 526 8 l 575 235 l 713 235 b 740 263 731 235 740 244 l 740 372 b 713 400 740 390 731 400 l 610 400 l 643 553 l 767 553 b 794 581 785 553 794 563 l 794 688 b 767 715 794 706 785 715 l 678 715 l 728 943 b 686 972 731 961 714 972 l 600 972 b 553 946 574 972 556 964 l 503 715 l 415 715 l 464 943 b 424 972 467 961 450 972 l 340 972 b 294 946 314 972 297 964 l 246 715 l 125 715 b 97 688 107 715 97 706 l 97 581 b 125 553 97 563 107 553 l 211 553 l 179 400 l 69 400 b 42 372 51 400 42 390 l 42 263 b 69 235 42 244 51 235 l 144 235 l 101 29 b 142 0 99 11 115 0 z m 350 400 l 382 553 l 468 553 l 435 400 z "},"/":{"ha":657,"x_min":0,"x_max":0,"o":"m 74 -97 l 256 -97 b 292 -72 276 -97 286 -89 l 614 1025 b 582 1056 618 1043 607 1056 l 400 1056 b 364 1031 379 1056 369 1047 l 43 -67 b 74 -97 38 -85 50 -97 z "},"\\":{"ha":657,"x_min":0,"x_max":0,"o":"m 401 -97 l 583 -97 b 614 -67 607 -97 619 -85 l 293 1031 b 257 1056 288 1047 278 1056 l 75 1056 b 43 1025 50 1056 39 1043 l 365 -72 b 401 -97 371 -89 381 -97 z "},"-":{"ha":417,"x_min":0,"x_max":0,"o":"m 69 328 l 347 328 b 375 356 365 328 375 338 l 375 506 b 347 533 375 524 365 533 l 69 533 b 42 506 51 533 42 524 l 42 356 b 69 328 42 338 51 328 z "},"–":{"ha":500,"x_min":0,"x_max":0,"o":"m 69 328 l 431 328 b 458 356 449 328 458 338 l 458 506 b 431 533 458 524 449 533 l 69 533 b 42 506 51 533 42 524 l 42 356 b 69 328 42 338 51 328 z "},"—":{"ha":611,"x_min":0,"x_max":0,"o":"m 69 328 l 542 328 b 569 356 560 328 569 338 l 569 506 b 542 533 569 524 560 533 l 69 533 b 42 506 51 533 42 524 l 42 356 b 69 328 42 338 51 328 z "},"_":{"ha":667,"x_min":0,"x_max":0,"o":"m 69 0 l 597 0 b 625 28 615 0 625 10 l 625 178 b 597 206 625 196 615 206 l 69 206 b 42 178 51 206 42 196 l 42 28 b 69 0 42 10 51 0 z "},"(":{"ha":650,"x_min":0,"x_max":0,"o":"m 599 -78 b 361 486 440 69 361 278 b 599 1050 361 694 440 903 b 579 1083 618 1068 608 1083 l 446 1083 b 403 1074 429 1083 417 1081 b 42 486 161 950 42 718 b 403 -101 42 256 161 22 b 446 -111 417 -108 429 -111 l 579 -111 b 599 -78 608 -111 618 -96 z "},")":{"ha":650,"x_min":0,"x_max":0,"o":"m 51 -78 b 71 -111 32 -96 42 -111 l 204 -111 b 247 -101 221 -111 233 -108 b 608 486 489 22 608 256 b 247 1074 608 718 489 950 b 204 1083 233 1081 221 1083 l 71 1083 b 51 1050 42 1083 32 1068 b 289 486 210 903 289 694 b 51 -78 289 278 210 69 z "},"{":{"ha":724,"x_min":0,"x_max":0,"o":"m 310 482 l 310 483 b 326 497 310 492 315 496 b 650 997 568 532 458 954 b 682 1026 671 1001 682 1010 l 682 1056 b 646 1083 682 1074 669 1083 l 525 1083 b 65 556 60 1083 250 663 b 42 522 50 547 42 538 l 42 450 b 65 417 42 435 50 425 b 525 -111 250 310 60 -111 l 646 -111 b 682 -83 669 -111 682 -101 l 682 -68 b 647 -39 682 -51 669 -43 b 326 468 432 0 576 435 b 310 482 315 469 310 474 z "},"}":{"ha":724,"x_min":0,"x_max":0,"o":"m 414 483 l 414 482 b 397 468 414 474 408 469 b 76 -39 147 435 292 0 b 42 -68 54 -43 42 -51 l 42 -83 b 78 -111 42 -101 54 -111 l 199 -111 b 658 417 664 -111 474 310 b 682 450 674 425 682 435 l 682 522 b 658 556 682 538 674 547 b 199 1083 474 663 664 1083 l 78 1083 b 42 1056 54 1083 42 1074 l 42 1026 b 74 997 42 1010 53 1001 b 397 497 265 954 156 532 b 414 483 408 496 414 492 z "},"[":{"ha":582,"x_min":0,"x_max":0,"o":"m 67 -111 l 515 -111 b 540 -83 531 -111 540 -101 l 540 28 b 515 56 540 46 531 56 l 388 56 b 363 83 371 56 363 65 l 363 889 b 388 917 363 907 371 917 l 515 917 b 540 944 531 917 540 926 l 540 1056 b 515 1083 540 1074 531 1083 l 67 1083 b 42 1056 50 1083 42 1074 l 42 -83 b 67 -111 42 -101 50 -111 z "},"]":{"ha":582,"x_min":0,"x_max":0,"o":"m 67 -111 l 515 -111 b 540 -83 532 -111 540 -101 l 540 1056 b 515 1083 540 1074 532 1083 l 67 1083 b 42 1056 51 1083 42 1074 l 42 944 b 67 917 42 926 51 917 l 194 917 b 219 889 211 917 219 907 l 219 83 b 194 56 219 65 211 56 l 67 56 b 42 28 51 56 42 46 l 42 -83 b 67 -111 42 -101 51 -111 z "},"‚":{"ha":349,"x_min":0,"x_max":0,"o":"m 197 -151 b 300 144 238 -96 279 -8 b 278 210 306 186 296 210 l 101 210 b 74 181 83 210 74 200 b 49 -107 72 44 63 -44 b 67 -140 44 -124 50 -135 l 142 -167 b 197 -151 164 -175 183 -169 z "},"„":{"ha":610,"x_min":0,"x_max":0,"o":"m 458 -151 b 561 144 499 -96 540 -8 b 539 210 567 186 557 210 l 363 210 b 335 181 344 210 335 200 b 310 -107 333 44 324 -44 b 328 -140 306 -124 311 -135 l 403 -167 b 458 -151 425 -175 444 -169 z m 197 -151 b 300 144 238 -96 279 -8 b 278 210 306 186 296 210 l 101 210 b 74 181 83 210 74 200 b 49 -107 72 44 63 -44 b 67 -140 44 -124 50 -135 l 142 -167 b 197 -151 164 -175 183 -169 z "},"“":{"ha":610,"x_min":0,"x_max":0,"o":"m 151 1056 b 49 760 111 1000 69 913 b 71 694 43 718 53 694 l 247 694 b 275 724 265 694 275 704 b 300 1011 276 860 286 949 b 282 1044 304 1028 299 1039 l 207 1071 b 151 1056 185 1079 165 1074 z m 413 1056 b 310 760 372 1000 331 913 b 332 694 304 718 314 694 l 508 694 b 536 724 526 694 536 704 b 561 1011 538 860 547 949 b 543 1044 565 1028 560 1039 l 468 1071 b 413 1056 446 1079 426 1074 z "},"”":{"ha":610,"x_min":0,"x_max":0,"o":"m 458 721 b 561 1017 499 776 540 864 b 539 1082 567 1058 557 1082 l 363 1082 b 335 1053 344 1082 335 1072 b 310 765 333 917 324 828 b 328 732 306 749 311 738 l 403 706 b 458 721 425 697 444 703 z m 197 721 b 300 1017 238 776 279 864 b 278 1082 306 1058 296 1082 l 101 1082 b 74 1053 83 1082 74 1072 b 49 765 72 917 63 828 b 67 732 44 749 50 738 l 142 706 b 197 721 164 697 183 703 z "},"‘":{"ha":349,"x_min":0,"x_max":0,"o":"m 151 1056 b 49 760 111 1000 69 913 b 71 694 43 718 53 694 l 247 694 b 275 724 265 694 275 704 b 300 1011 276 860 286 949 b 282 1044 304 1028 299 1039 l 207 1071 b 151 1056 185 1079 165 1074 z "},"’":{"ha":349,"x_min":0,"x_max":0,"o":"m 197 721 b 300 1017 238 776 279 864 b 278 1082 306 1058 296 1082 l 101 1082 b 74 1053 83 1082 74 1072 b 49 765 72 917 63 828 b 67 732 44 749 50 738 l 142 706 b 197 721 164 697 183 703 z "},"«":{"ha":850,"x_min":0,"x_max":0,"o":"m 42 492 l 42 425 b 57 392 42 411 44 403 l 335 147 b 378 151 350 133 367 136 l 446 243 b 443 282 456 257 456 268 b 172 446 349 388 263 443 b 164 453 168 446 164 449 l 164 465 b 172 472 164 469 168 472 b 444 636 263 475 349 528 b 444 675 456 650 454 661 l 378 765 b 335 769 365 781 350 782 l 57 526 b 42 492 46 517 42 506 z m 397 492 l 397 425 b 413 392 397 411 400 403 l 690 147 b 733 151 706 133 722 136 l 801 243 b 799 282 811 257 811 268 b 528 446 704 388 618 443 b 519 453 524 446 519 449 l 519 465 b 528 472 519 469 524 472 b 800 636 618 475 704 528 b 800 675 811 650 810 661 l 733 765 b 690 769 721 781 706 782 l 413 526 b 397 492 401 517 397 506 z "},"»":{"ha":850,"x_min":0,"x_max":0,"o":"m 808 425 l 808 492 b 793 526 808 506 804 517 l 515 769 b 472 765 500 782 485 781 l 406 675 b 406 636 396 661 394 650 b 678 472 501 528 588 475 b 686 465 682 472 686 469 l 686 453 b 678 446 686 449 682 446 b 407 282 588 443 501 388 b 404 243 394 268 394 257 l 472 151 b 515 147 483 136 500 133 l 793 392 b 808 425 806 403 808 411 z m 453 425 l 453 492 b 438 526 453 506 449 517 l 160 769 b 117 765 144 782 129 781 l 50 675 b 50 636 40 661 39 650 b 322 472 146 528 232 475 b 331 465 326 472 331 469 l 331 453 b 322 446 331 449 326 446 b 51 282 232 443 146 388 b 49 243 39 268 39 257 l 117 151 b 160 147 128 136 144 133 l 438 392 b 453 425 450 403 453 411 z "},"‹":{"ha":494,"x_min":0,"x_max":0,"o":"m 42 492 l 42 425 b 57 392 42 411 44 403 l 335 147 b 378 151 350 133 367 136 l 446 243 b 443 282 456 257 456 268 b 172 446 349 388 263 443 b 164 453 168 446 164 449 l 164 465 b 172 472 164 469 168 472 b 444 636 263 475 349 528 b 444 675 456 650 454 661 l 378 765 b 335 769 365 781 350 782 l 57 526 b 42 492 46 517 42 506 z "},"›":{"ha":494,"x_min":0,"x_max":0,"o":"m 453 425 l 453 492 b 438 526 453 506 449 517 l 160 769 b 117 765 144 782 129 781 l 50 675 b 50 636 40 661 39 650 b 322 472 146 528 232 475 b 331 465 326 472 331 469 l 331 453 b 322 446 331 449 326 446 b 51 282 232 443 146 388 b 49 243 39 268 39 257 l 117 151 b 160 147 128 136 144 133 l 438 392 b 453 425 450 403 453 411 z "},"\"":{"ha":610,"x_min":0,"x_max":0,"o":"m 458 721 b 561 1017 499 776 540 864 b 539 1082 567 1058 557 1082 l 363 1082 b 335 1053 344 1082 335 1072 b 310 765 333 917 324 828 b 328 732 306 749 311 738 l 403 706 b 458 721 425 697 444 703 z m 197 721 b 300 1017 238 776 279 864 b 278 1082 306 1058 296 1082 l 101 1082 b 74 1053 83 1082 74 1072 b 49 765 72 917 63 828 b 67 732 44 749 50 738 l 142 706 b 197 721 164 697 183 703 z "},"'":{"ha":349,"x_min":0,"x_max":0,"o":"m 197 721 b 300 1017 238 776 279 864 b 278 1082 306 1058 296 1082 l 101 1082 b 74 1053 83 1082 74 1072 b 49 765 72 917 63 828 b 67 732 44 749 50 738 l 142 706 b 197 721 164 697 183 703 z "},"@":{"ha":1207,"x_min":0,"x_max":0,"o":"m 983 450 b 904 247 983 285 935 247 b 865 335 871 247 865 290 l 865 654 l 742 654 b 668 604 678 654 668 638 b 663 535 668 547 692 536 b 504 663 624 535 661 663 b 304 425 346 663 304 543 b 504 182 304 283 357 182 b 668 288 676 183 624 289 b 675 235 688 288 674 261 b 894 106 675 129 811 106 b 1165 481 1044 106 1165 226 b 607 971 1165 789 943 971 b 42 443 274 971 42 776 b 558 -137 42 -39 421 -137 b 692 -133 631 -137 664 -136 b 760 -74 738 -131 760 -108 l 760 32 b 679 104 760 69 731 110 b 218 425 378 69 218 193 b 607 767 218 672 392 767 b 983 450 821 767 983 664 z m 508 343 b 386 415 410 343 386 379 b 508 485 386 450 410 485 b 632 415 606 485 632 450 b 508 343 632 379 606 343 z "},"&":{"ha":1000,"x_min":0,"x_max":0,"o":"m 286 -12 b 583 375 551 -12 558 324 b 597 197 597 406 597 250 b 633 0 597 67 571 0 l 958 0 l 956 65 b 733 435 943 347 733 401 b 889 424 733 465 800 424 l 889 543 l 521 549 l 521 438 b 432 318 521 361 494 317 b 349 375 374 319 349 338 b 474 439 349 414 381 439 l 474 550 b 381 603 399 550 381 575 b 522 657 381 635 406 657 b 750 582 649 657 710 607 l 750 957 b 560 982 686 975 660 982 b 138 725 214 982 138 879 b 236 542 138 624 185 563 b 293 508 278 525 293 525 b 249 481 293 490 274 485 b 42 240 156 465 42 429 b 286 -12 42 99 115 -12 z "},"§":{"ha":4879,"x_min":0,"x_max":0,"o":"m 2631 0 l 2444 0 b 2333 144 2272 0 2386 144 b 2088 -14 2267 146 2346 -12 b 1788 350 1867 -14 1788 138 b 2088 707 1788 526 1850 707 b 2325 515 2324 707 2267 514 b 2333 619 2369 517 2333 533 b 2444 694 2333 668 2349 694 l 2631 694 z m 2094 226 b 2279 335 2242 226 2279 281 b 2094 439 2279 388 2242 439 b 1911 335 1947 439 1911 388 b 2094 226 1911 281 1947 226 z m 2706 694 l 2706 0 l 3025 0 l 3026 694 b 2867 656 2992 694 2972 656 b 2706 694 2758 656 2743 694 z m 2863 715 b 3038 885 2958 715 3038 765 b 2863 1054 3038 985 2958 1054 b 2688 885 2767 1054 2688 985 b 2863 715 2688 765 2767 715 z m 3889 419 l 3889 694 l 3714 694 b 3431 486 3447 694 3476 486 b 3447 833 3388 488 3447 653 b 3313 972 3447 946 3408 972 l 3126 972 l 3126 0 l 3339 0 b 3499 136 3407 0 3504 32 b 3503 281 3496 192 3497 242 b 3597 135 3522 364 3596 257 b 3704 -10 3597 29 3640 -10 l 3932 -10 l 3932 176 b 3647 390 3932 329 3726 375 b 3603 421 3624 394 3603 390 b 3653 446 3603 446 3629 446 b 3889 419 3696 446 3883 421 z m 4065 39 l 4065 -242 b 4838 693 4810 -297 4786 -107 l 4414 693 b 4438 369 4425 568 4515 369 b 4303 693 4347 369 4303 403 l 3960 693 l 3968 529 b 4368 142 3986 160 4185 46 b 4488 203 4438 181 4488 267 b 4065 39 4488 67 4364 -25 z m 1489 0 l 1707 0 l 1707 972 b 1558 992 1683 986 1626 992 b 1154 731 1356 992 1229 882 b 825 972 1088 867 985 972 l 699 972 b 282 778 496 969 356 869 b 347 460 124 581 257 460 b 563 785 546 460 474 785 b 574 782 567 785 569 785 l 574 129 b 510 44 557 58 531 44 b 504 293 419 44 514 221 b 275 414 488 414 382 429 b 78 117 82 388 -17 299 b 563 -121 192 -97 418 -121 b 954 99 808 -121 954 -51 b 992 713 954 224 790 713 b 992 193 1093 713 1086 508 l 1289 193 b 1274 294 1286 221 1281 256 l 1260 375 b 1322 694 1236 526 1221 694 b 1329 138 1500 694 1335 317 b 1489 0 1326 39 1421 0 z "},"©":{"ha":997,"x_min":0,"x_max":0,"o":"m 500 -46 b 1001 456 781 -46 1001 175 b 500 960 1001 736 781 960 b -4 456 219 960 -4 736 b 500 -46 -4 175 219 -46 z m 500 65 b 110 456 282 65 110 238 b 500 846 110 674 282 846 b 890 456 718 846 890 674 b 500 65 890 238 718 65 z m 726 564 l 726 689 b 508 740 669 722 610 740 b 244 456 313 740 244 642 b 508 172 244 271 313 172 b 726 224 610 172 683 197 l 726 458 l 615 438 b 317 503 382 396 317 450 b 543 528 317 558 426 588 b 726 564 621 489 726 488 z "},"®":{"ha":718,"x_min":0,"x_max":0,"o":"m 360 250 b 706 596 551 250 706 404 b 360 943 706 788 551 943 b 13 596 168 943 13 788 b 360 250 13 404 168 250 z m 360 356 b 119 596 226 356 119 463 b 360 836 119 729 226 836 b 600 596 493 836 600 729 b 360 356 600 463 493 356 z m 231 442 l 299 442 b 349 485 319 442 350 454 b 339 565 347 514 343 538 l 342 565 b 390 503 374 565 390 542 b 410 442 390 458 388 442 l 528 442 l 515 507 b 422 576 507 556 467 576 b 410 583 414 576 410 579 b 415 588 410 588 411 588 l 419 588 b 500 661 460 588 500 611 b 329 744 500 739 460 751 l 231 742 z m 331 651 b 385 679 332 674 360 679 b 436 653 418 679 436 674 b 379 622 436 635 422 622 b 332 647 350 622 333 632 l 331 646 z "},"°":{"ha":468,"x_min":0,"x_max":0,"o":"m 219 535 b 429 753 376 535 429 611 b 219 972 429 897 376 972 b 8 753 63 972 8 897 b 219 535 8 611 63 535 z m 244 763 b 179 651 244 674 213 651 b 113 763 144 651 113 674 b 179 875 113 851 144 875 b 244 763 213 875 244 851 z "},"|":{"ha":250,"x_min":0,"x_max":0,"o":"m 83 -128 l 167 -128 b 208 -86 193 -128 208 -112 l 208 1044 b 167 1086 208 1071 193 1086 l 83 1086 b 42 1044 57 1086 42 1071 l 42 -86 b 83 -128 42 -112 57 -128 z "},"†":{"ha":449,"x_min":0,"x_max":0,"o":"m 194 390 l 310 390 b 338 418 328 390 338 400 l 338 657 l 439 657 b 467 685 457 657 467 667 l 467 793 b 439 821 467 811 457 821 l 338 821 l 338 903 b 310 931 338 921 328 931 l 194 931 b 167 903 176 931 167 921 l 167 821 l 69 821 b 42 793 51 821 42 811 l 42 685 b 69 657 42 667 51 657 l 167 657 l 167 418 b 194 390 167 400 176 390 z "},"¢":{"ha":921,"x_min":0,"x_max":0,"o":"m 886 676 l 886 897 b 574 986 800 949 710 978 l 583 1032 b 560 1063 588 1050 579 1063 l 457 1063 b 433 1032 438 1063 429 1050 l 443 986 b 35 485 142 967 35 794 b 444 -14 35 176 142 6 l 433 -68 b 457 -99 429 -86 438 -99 l 560 -99 b 583 -68 579 -99 588 -86 l 572 -12 b 886 75 714 -3 821 36 l 886 490 l 689 454 b 163 569 278 379 163 475 b 561 614 163 667 356 718 b 886 676 699 544 886 542 z "},"¤":{"ha":761,"x_min":0,"x_max":0,"o":"m 379 189 b 536 218 436 189 490 199 l 606 121 b 644 119 617 104 632 106 l 718 199 b 714 238 731 213 729 226 l 639 292 b 697 472 676 338 697 397 b 646 644 697 543 678 601 l 714 694 b 718 735 729 706 731 721 l 644 814 b 606 813 632 828 617 829 l 543 725 b 379 757 496 746 440 757 b 222 729 322 757 268 747 l 174 810 b 135 815 164 826 149 829 l 53 733 b 56 694 40 721 40 707 l 115 649 b 63 472 82 604 63 546 b 122 290 63 396 85 335 l 56 239 b 53 200 40 226 40 213 l 135 118 b 174 124 149 104 164 107 l 229 215 b 379 189 274 197 324 189 z m 385 435 b 217 504 251 435 217 468 b 385 572 217 539 251 572 b 553 504 518 572 553 539 b 385 435 553 468 518 435 z "},"$":{"ha":1019,"x_min":0,"x_max":0,"o":"m 807 639 l 931 860 b 543 988 863 943 706 989 l 551 1032 b 528 1063 556 1050 547 1063 l 425 1063 b 401 1032 406 1063 397 1050 l 413 976 b 42 643 215 944 42 839 b 581 410 42 286 544 492 b 165 338 629 299 293 299 l 42 117 b 411 -17 93 44 244 -7 l 401 -68 b 425 -99 397 -86 406 -99 l 528 -99 b 551 -68 547 -99 556 -86 l 542 -17 b 985 315 768 -1 985 93 b 410 576 985 731 450 492 b 807 639 350 703 733 681 z "},"€":{"ha":985,"x_min":0,"x_max":0,"o":"m 950 676 l 950 897 b 565 988 849 957 743 988 b 103 588 257 988 128 850 l 35 588 l 35 531 l 100 531 l 99 508 l 35 508 l 35 451 l 99 451 b 565 -15 107 146 232 -15 b 950 75 743 -15 874 31 l 950 490 l 753 410 b 254 451 461 290 311 360 l 493 451 l 493 508 l 231 508 l 226 531 l 493 531 l 493 588 l 235 588 b 625 614 276 678 446 704 b 950 676 763 544 950 542 z "},"£":{"ha":842,"x_min":0,"x_max":0,"o":"m 42 319 l 42 0 l 799 0 l 800 381 b 290 328 554 381 508 344 b 361 451 333 360 353 404 l 540 451 l 540 588 l 365 588 l 363 644 b 682 725 363 853 615 782 l 682 917 b 340 983 657 956 500 983 b 39 771 183 983 39 964 b 113 588 39 726 76 658 l 35 588 l 35 451 l 169 451 b 42 319 188 378 167 321 z "},"¥":{"ha":1149,"x_min":0,"x_max":0,"o":"m 792 314 l 792 336 l 901 336 l 901 393 l 804 393 b 1107 972 861 543 1107 593 l 717 972 b 700 961 700 972 697 967 b 588 506 765 817 688 506 b 501 610 538 506 506 543 b 433 972 496 736 678 972 l 42 972 b 379 393 42 608 313 524 l 276 393 l 276 336 l 393 336 l 393 314 l 276 314 l 276 257 l 382 257 b 339 0 365 207 339 164 l 840 0 b 804 257 840 169 819 217 l 901 257 l 901 314 z "},"+":{"ha":486,"x_min":0,"x_max":0,"o":"m 69 365 l 169 365 l 169 265 b 197 238 169 247 179 238 l 289 238 b 317 265 307 238 317 247 l 317 365 l 417 365 b 444 393 435 365 444 375 l 444 485 b 417 513 444 503 435 513 l 317 513 l 317 613 b 289 640 317 631 307 640 l 197 640 b 169 613 179 640 169 631 l 169 513 l 69 513 b 42 485 51 513 42 503 l 42 393 b 69 365 42 375 51 365 z "},"−":{"ha":486,"x_min":0,"x_max":0,"o":"m 69 364 l 417 364 b 444 392 435 364 444 374 l 444 486 b 417 514 444 504 435 514 l 69 514 b 42 486 51 514 42 504 l 42 392 b 69 364 42 374 51 364 z "},"×":{"ha":453,"x_min":0,"x_max":0,"o":"m 51 510 l 122 439 l 51 368 b 51 329 39 356 39 342 l 117 264 b 156 264 129 251 143 251 l 226 335 l 297 264 b 336 264 310 251 324 251 l 401 329 b 401 368 414 342 414 356 l 331 439 l 401 510 b 401 549 414 522 414 536 l 336 614 b 297 614 324 626 310 626 l 226 543 l 156 614 b 117 614 143 626 129 626 l 51 549 b 51 510 39 536 39 522 z "},"÷":{"ha":486,"x_min":0,"x_max":0,"o":"m 240 550 b 321 632 285 550 321 586 b 240 713 321 676 285 713 b 158 632 194 713 158 676 b 240 550 158 586 194 550 z m 240 165 b 321 247 285 165 321 201 b 240 328 321 292 285 328 b 158 247 194 328 158 292 b 240 165 158 201 194 165 z m 69 364 l 417 364 b 444 392 435 364 444 374 l 444 486 b 417 514 444 504 435 514 l 69 514 b 42 486 51 514 42 504 l 42 392 b 69 364 42 374 51 364 z "},"=":{"ha":486,"x_min":0,"x_max":0,"o":"m 69 256 l 417 256 b 444 283 435 256 444 265 l 444 378 b 417 406 444 396 435 406 l 69 406 b 42 378 51 406 42 396 l 42 283 b 69 256 42 265 51 256 z m 69 447 l 417 447 b 444 475 435 447 444 457 l 444 569 b 417 597 444 588 435 597 l 69 597 b 42 569 51 597 42 588 l 42 475 b 69 447 42 457 51 447 z "},">":{"ha":657,"x_min":0,"x_max":0,"o":"m 615 400 l 615 472 b 594 510 615 486 608 499 l 207 769 b 146 764 186 782 164 782 l 53 668 b 53 626 40 654 38 642 b 364 451 188 511 307 454 b 375 444 369 451 375 447 l 375 431 b 364 424 375 426 369 424 b 56 247 307 419 188 360 b 51 206 38 232 38 221 l 146 107 b 207 103 161 90 186 89 l 594 365 b 615 400 611 376 615 386 z "},"<":{"ha":657,"x_min":0,"x_max":0,"o":"m 43 472 l 43 400 b 64 365 43 386 47 376 l 451 103 b 513 107 472 89 497 90 l 607 206 b 603 247 621 221 621 232 b 294 424 471 360 351 419 b 283 431 289 424 283 426 l 283 444 b 294 451 283 447 289 451 b 606 626 351 454 471 511 b 606 668 621 642 618 654 l 513 764 b 451 769 494 782 472 782 l 64 510 b 43 472 50 499 43 486 z "},"±":{"ha":569,"x_min":0,"x_max":0,"o":"m 71 456 l 217 456 l 217 372 b 246 343 217 354 228 343 l 324 343 b 353 372 342 343 353 354 l 353 456 l 499 456 b 528 485 518 456 528 465 l 528 551 b 499 581 528 571 518 581 l 353 581 l 353 664 b 324 694 353 683 342 694 l 246 694 b 217 664 228 694 217 683 l 217 581 l 71 581 b 42 551 51 581 42 571 l 42 485 b 71 456 42 465 51 456 z m 71 163 l 499 163 b 528 193 518 163 528 174 l 528 258 b 499 289 528 278 518 289 l 71 289 b 42 258 51 289 42 278 l 42 193 b 71 163 42 174 51 163 z "},"~":{"ha":694,"x_min":0,"x_max":0,"o":"m 111 393 b 611 318 264 479 446 208 b 653 400 646 342 653 360 l 653 457 b 560 493 653 528 639 536 b 83 581 429 421 246 692 b 42 486 49 556 42 539 l 42 447 b 111 393 42 371 58 363 z "},"^":{"ha":711,"x_min":0,"x_max":0,"o":"m 389 981 l 332 981 b 257 925 292 981 285 976 l 111 656 b 113 607 103 639 99 619 l 194 533 b 224 533 206 522 214 521 b 346 781 292 619 343 679 b 351 789 346 785 347 789 l 360 789 b 364 781 363 789 364 785 b 486 535 368 668 432 607 b 517 532 497 521 504 522 l 613 607 b 614 656 625 617 624 639 l 453 931 b 389 981 425 979 418 981 z "},"%":{"ha":1401,"x_min":0,"x_max":0,"o":"m 415 -67 l 624 -67 b 664 -43 647 -67 658 -58 l 1032 1025 b 994 1056 1036 1043 1024 1056 l 788 1056 b 747 1031 764 1056 753 1047 l 381 -37 b 415 -67 375 -54 389 -67 z m 301 508 b 560 761 494 508 560 596 b 301 1014 560 926 494 1014 b 42 761 108 1014 42 926 b 301 508 42 596 108 508 z m 333 772 b 251 643 333 669 293 643 b 169 772 208 643 169 669 b 251 900 169 874 208 900 b 333 772 293 900 333 874 z m 1085 -74 b 1346 179 1279 -74 1346 14 b 1085 432 1346 344 1279 432 b 822 179 890 432 822 344 b 1085 -74 822 14 890 -74 z m 1117 190 b 1035 61 1117 88 1076 61 b 951 190 992 61 951 88 b 1035 318 951 292 992 318 b 1117 190 1076 318 1117 292 z "},"‰":{"ha":1976,"x_min":0,"x_max":0,"o":"m 415 -67 l 624 -67 b 664 -43 647 -67 658 -58 l 1032 1025 b 994 1056 1036 1043 1024 1056 l 788 1056 b 747 1031 764 1056 753 1047 l 381 -37 b 415 -67 375 -54 389 -67 z m 301 508 b 560 761 494 508 560 596 b 301 1014 560 926 494 1014 b 42 761 108 1014 42 926 b 301 508 42 596 108 508 z m 333 772 b 251 643 333 669 293 643 b 169 772 208 643 169 669 b 251 900 169 874 208 900 b 333 772 293 900 333 874 z m 1085 -74 b 1346 179 1279 -74 1346 14 b 1085 432 1346 344 1279 432 b 822 179 890 432 822 344 b 1085 -74 822 14 890 -74 z m 1117 190 b 1035 61 1117 88 1076 61 b 951 190 992 61 951 88 b 1035 318 951 292 992 318 b 1117 190 1076 318 1117 292 z m 1660 -74 b 1921 179 1854 -74 1921 14 b 1660 432 1921 344 1854 432 b 1397 179 1465 432 1397 344 b 1660 -74 1397 14 1465 -74 z m 1692 190 b 1610 61 1692 88 1651 61 b 1526 190 1567 61 1526 88 b 1610 318 1526 292 1567 318 b 1692 190 1651 318 1692 292 z "},"̈":{"ha":0,"x_min":0,"x_max":0,"o":"m 111 775 b 181 844 150 775 181 806 b 111 914 181 883 150 914 b 42 844 72 914 42 883 b 111 775 42 806 72 775 z m 278 775 b 347 844 317 775 347 806 b 278 914 347 883 317 914 b 208 844 239 914 208 883 b 278 775 208 806 239 775 z "},"̇":{"ha":0,"x_min":0,"x_max":0,"o":"m 111 775 b 181 844 150 775 181 806 b 111 914 181 883 150 914 b 42 844 72 914 42 883 b 111 775 42 806 72 775 z "},"̀":{"ha":0,"x_min":0,"x_max":0,"o":"m 215 793 l 226 804 b 229 843 239 815 240 829 l 140 954 b 101 957 129 969 114 969 l 63 918 b 65 879 50 906 50 892 l 176 792 b 215 793 189 782 203 782 z "},"́":{"ha":0,"x_min":0,"x_max":0,"o":"m 111 792 l 222 879 b 225 918 238 892 238 906 l 186 957 b 147 954 174 969 158 969 l 58 843 b 61 804 47 829 49 815 l 72 793 b 111 792 85 782 99 782 z "},"̋":{"ha":0,"x_min":0,"x_max":0,"o":"m 115 794 l 210 900 b 206 939 222 914 221 928 l 160 971 b 122 961 144 982 131 978 l 54 838 b 64 799 46 822 50 808 l 76 790 b 115 794 90 781 104 782 z m 268 794 l 363 900 b 358 939 375 914 374 928 l 313 971 b 275 961 297 982 283 978 l 207 838 b 217 799 199 822 203 808 l 229 790 b 268 794 243 781 257 782 z "},"̂":{"ha":0,"x_min":0,"x_max":0,"o":"m 268 793 l 299 819 b 300 858 313 832 314 846 l 201 946 b 163 946 188 958 176 958 l 64 858 b 65 819 50 846 51 832 l 96 793 b 135 799 110 781 125 783 l 163 839 b 201 839 174 856 190 856 l 229 799 b 268 793 239 783 254 781 z "},"̌":{"ha":0,"x_min":0,"x_max":0,"o":"m 201 792 l 300 879 b 299 918 314 892 313 906 l 268 944 b 229 939 254 957 239 954 l 201 899 b 163 899 190 882 174 882 l 135 939 b 96 943 125 954 110 956 l 65 918 b 64 879 51 906 50 892 l 163 792 b 201 792 176 779 188 779 z "},"̆":{"ha":0,"x_min":0,"x_max":0,"o":"m 196 775 b 325 843 247 775 283 800 b 325 888 342 860 340 876 l 297 906 b 258 896 282 915 269 911 b 196 857 239 867 222 857 b 133 896 169 857 153 867 b 94 906 122 911 110 915 l 67 888 b 63 849 51 876 49 863 b 196 775 104 801 143 775 z "},"̊":{"ha":0,"x_min":0,"x_max":0,"o":"m 151 775 b 260 885 211 775 260 824 b 151 993 260 944 211 993 b 42 885 90 993 42 944 b 151 775 42 824 90 775 z m 151 826 b 93 885 119 826 93 853 b 151 942 93 915 119 942 b 208 885 182 942 208 915 b 151 826 208 853 182 826 z "},"̃":{"ha":0,"x_min":0,"x_max":0,"o":"m 269 775 b 361 854 303 775 344 781 b 340 928 372 901 358 928 l 314 928 b 285 900 297 928 289 918 b 254 863 281 876 269 863 b 139 951 213 863 218 951 b 43 829 101 951 50 943 b 69 799 42 810 51 799 l 94 799 b 124 826 111 799 119 808 b 156 864 128 850 140 864 b 269 775 197 864 192 775 z "},"̄":{"ha":0,"x_min":0,"x_max":0,"o":"m 69 789 l 253 789 b 281 817 271 789 281 799 l 281 831 b 253 858 281 849 271 858 l 69 858 b 42 831 51 858 42 849 l 42 817 b 69 789 42 799 51 789 z "},"̒":{"ha":0,"x_min":0,"x_max":0,"o":"m 56 775 l 171 775 b 199 803 189 775 199 785 l 199 889 b 171 917 199 907 189 917 l 108 917 b 129 967 114 933 121 950 b 119 983 135 976 131 983 l 104 983 b 88 974 97 983 92 981 b 42 796 53 911 43 851 b 56 775 42 781 47 775 z "},"̦":{"ha":0,"x_min":0,"x_max":0,"o":"m 117 -329 l 169 -197 b 153 -161 176 -181 171 -165 l 100 -147 b 67 -169 82 -142 69 -150 l 46 -310 b 68 -342 43 -328 51 -337 l 82 -346 b 117 -329 99 -350 111 -344 z "},"̧":{"ha":0,"x_min":0,"x_max":0,"o":"m 74 -325 b 197 -237 161 -325 197 -285 b 129 -168 197 -200 175 -176 b 104 -137 110 -165 101 -156 l 110 -96 b 96 -81 111 -87 104 -81 l 82 -81 b 68 -93 74 -81 69 -83 l 57 -178 b 88 -207 54 -203 60 -206 b 133 -232 121 -208 133 -219 b 74 -257 133 -244 118 -257 b 42 -285 47 -257 42 -265 l 42 -297 b 74 -325 42 -317 47 -325 z "},"̨":{"ha":0,"x_min":0,"x_max":0,"o":"m 42 -250 b 144 -325 42 -293 68 -325 b 183 -297 174 -325 183 -315 l 183 -271 b 144 -243 183 -253 174 -243 b 99 -210 108 -243 99 -229 b 158 -97 99 -182 126 -139 b 150 -81 165 -87 161 -81 l 142 -81 b 125 -89 135 -81 131 -83 b 42 -250 72 -150 42 -207 z "},"":{"ha":1338,"x_min":0,"x_max":0,"o":"m 56 169 b 469 -129 138 -58 251 -129 b 974 244 926 -129 819 244 b 978 0 1081 244 978 100 l 1303 0 l 1303 972 b 1071 982 1214 979 1122 982 b 501 783 801 982 621 908 b 549 443 307 581 458 443 b 719 768 747 443 633 768 b 451 40 832 768 574 40 b 501 285 382 40 501 211 b 292 436 501 407 400 436 b 56 169 97 436 -14 363 z m 956 576 b 1051 740 992 713 1011 740 b 1094 581 1097 740 1092 704 b 997 428 1097 458 1068 428 b 956 576 914 428 926 465 z "},"":{"ha":1407,"x_min":0,"x_max":0,"o":"m 746 972 l 539 972 b 115 778 332 972 190 871 b 181 460 -43 581 90 460 b 396 785 379 460 307 785 b 424 742 410 785 424 776 l 424 743 b 358 232 426 521 433 311 b 682 0 189 53 464 0 l 746 0 b 1365 289 1160 0 1365 33 b 1150 544 1365 392 1307 524 b 1265 726 1217 590 1265 649 b 746 972 1265 963 1099 972 z m 746 221 l 746 325 b 828 396 746 351 779 374 b 1046 335 1011 469 1047 399 b 746 221 1046 203 831 219 z m 746 517 l 746 682 b 1022 657 793 728 1022 746 b 746 517 1022 554 826 547 z "},"":{"ha":1358,"x_min":0,"x_max":0,"o":"m 742 985 b 115 778 447 963 272 971 b 181 460 -43 581 90 460 b 396 785 379 460 307 785 b 424 742 410 785 424 776 l 424 743 l 425 676 l 425 543 b 358 232 422 403 410 286 b 689 0 169 33 461 0 b 1317 564 1031 0 1317 211 b 742 985 1317 890 1108 1013 z m 746 276 l 746 856 b 1014 643 835 885 1014 868 b 746 276 1014 322 889 276 z "},"":{"ha":1022,"x_min":0,"x_max":0,"o":"m 367 510 b 42 264 367 456 42 585 b 506 -15 42 50 217 -15 b 978 53 697 -15 942 18 l 978 388 b 463 283 665 388 618 283 b 369 346 393 283 369 301 b 618 429 369 413 506 429 l 843 429 l 843 554 l 714 554 b 369 661 603 554 369 557 b 463 721 369 706 403 721 b 789 613 610 721 603 613 b 981 782 947 613 981 706 b 515 993 981 911 893 993 b 42 744 235 993 42 911 b 367 510 42 446 367 569 z "},"":{"ha":1367,"x_min":0,"x_max":0,"o":"m 960 671 b 1325 614 1079 660 1142 617 l 1325 972 l 706 972 b 282 778 499 972 357 871 b 347 460 124 581 257 460 b 563 785 546 460 474 785 b 590 742 576 785 590 776 l 590 331 b 510 44 590 76 543 44 b 504 293 419 44 514 221 b 275 414 488 414 382 429 b 78 117 82 388 -17 299 b 563 -121 192 -97 418 -121 b 931 124 683 -121 931 -86 b 885 329 931 211 899 268 b 914 374 883 344 890 374 l 1157 336 l 1157 563 l 949 563 b 889 603 900 563 889 583 l 890 626 b 960 671 894 658 917 674 z "},"":{"ha":1425,"x_min":0,"x_max":0,"o":"m 1249 368 l 1249 972 l 1031 972 b 883 865 963 972 879 933 b 904 603 890 747 897 665 b 865 582 900 588 889 582 l 804 581 b 754 615 769 582 758 589 b 746 865 749 686 746 768 l 746 972 l 539 972 b 115 778 332 972 190 871 b 181 460 -43 581 90 460 b 396 785 379 460 307 785 b 424 742 410 785 424 776 l 424 743 b 358 232 426 521 433 311 b 578 -11 183 49 476 -11 b 807 107 735 -11 813 24 b 786 319 803 186 794 254 b 829 413 783 351 786 404 l 879 411 b 936 350 913 411 931 389 l 939 324 l 939 318 b 946 65 943 258 946 182 l 946 0 b 1175 -290 953 -165 1003 -290 b 1383 -122 1300 -290 1383 -233 b 1249 368 1383 118 1254 24 z "},"":{"ha":1518,"x_min":0,"x_max":0,"o":"m 904 972 b 794 604 904 831 907 604 b 749 675 758 610 751 633 b 744 865 746 731 744 793 l 744 972 l 539 972 b 115 778 332 972 190 871 b 181 460 -43 581 90 460 b 396 785 379 460 307 785 b 422 756 408 785 419 779 b 357 232 425 529 433 313 b 576 -11 182 49 475 -11 b 806 107 733 -11 811 24 b 779 364 800 204 789 282 b 811 436 776 390 778 429 b 993 199 935 447 997 344 b 1275 -286 983 -106 1067 -286 b 1476 -143 1404 -286 1476 -239 b 1360 168 1476 24 1360 -83 b 1063 488 1360 404 1224 488 b 1026 542 965 488 988 542 b 1242 765 1140 543 1197 561 l 1288 972 z "},"":{"ha":1282,"x_min":0,"x_max":0,"o":"m 876 972 l 539 972 b 115 778 332 972 190 871 b 181 460 -43 581 90 460 b 396 785 379 460 307 785 b 422 756 408 785 419 779 b 357 232 425 529 433 313 b 1239 0 76 -62 771 -7 l 1240 381 b 847 307 1031 381 967 326 b 785 393 807 304 775 324 b 876 972 826 639 919 833 z "},"":{"ha":1749,"x_min":0,"x_max":0,"o":"m 1489 0 l 1707 0 l 1707 972 b 1558 992 1683 986 1626 992 b 1154 731 1356 992 1229 882 b 825 972 1088 867 985 972 l 699 972 b 282 778 496 969 356 869 b 347 460 124 581 257 460 b 563 785 546 460 474 785 b 574 782 567 785 569 785 l 574 129 b 510 44 557 58 531 44 b 504 293 419 44 514 221 b 275 414 488 414 382 429 b 78 117 82 388 -17 299 b 563 -121 192 -97 418 -121 b 954 99 808 -121 954 -51 b 992 713 954 224 790 713 b 992 193 1093 713 1086 508 l 1289 193 b 1274 294 1286 221 1281 256 l 1260 375 b 1322 694 1236 526 1221 694 b 1329 138 1500 694 1335 317 b 1489 0 1326 39 1421 0 z "},"":{"ha":1536,"x_min":0,"x_max":0,"o":"m 357 232 b 576 -11 182 49 475 -11 b 863 133 807 -11 863 35 b 806 674 863 301 654 674 b 1092 0 1021 674 781 0 l 1494 0 l 1494 972 l 1325 972 b 1176 514 901 972 1396 514 b 853 972 996 514 1231 976 l 526 972 b 115 778 326 968 189 869 b 181 460 -43 581 90 460 b 396 785 379 460 307 785 b 422 742 410 785 422 776 l 422 743 b 357 232 425 521 432 311 z "},"":{"ha":1397,"x_min":0,"x_max":0,"o":"m 357 232 b 557 -11 243 113 388 -11 b 793 167 733 -11 793 49 b 771 435 793 260 782 338 b 1061 269 814 342 938 267 b 1363 646 1265 272 1363 411 b 743 983 1363 963 1203 1007 l 535 972 b 115 778 329 968 190 869 b 181 460 -43 581 90 460 b 396 785 379 460 307 785 b 422 756 408 785 419 779 b 357 232 425 529 433 313 z m 753 653 l 751 681 b 961 771 760 750 854 771 b 1144 665 1053 771 1144 736 b 964 556 1144 588 1058 556 b 753 653 864 556 767 582 z "},"":{"ha":1538,"x_min":0,"x_max":0,"o":"m 357 232 b 576 -11 244 114 374 -11 b 804 138 715 -11 804 32 b 781 400 804 233 793 311 l 782 400 b 940 143 878 400 940 365 b 1279 -286 940 -118 1107 -286 b 1496 -139 1382 -286 1496 -256 b 1326 136 1496 40 1326 -71 b 1043 436 1326 328 1186 436 b 1001 458 1015 436 1001 446 b 1022 475 1001 472 1010 475 l 1035 475 b 1296 713 1164 475 1296 547 b 740 983 1296 963 1164 1006 l 539 972 b 115 778 353 957 190 871 b 181 460 -43 581 90 460 b 396 785 379 460 307 785 b 424 742 410 785 424 776 l 424 543 b 357 232 421 403 408 286 z m 751 657 l 749 689 b 922 771 758 754 844 771 b 1088 686 1031 771 1088 750 b 906 586 1089 626 1043 586 b 751 657 815 586 761 613 z "},"":{"ha":1482,"x_min":0,"x_max":0,"o":"m 1269 639 l 1393 860 b 504 643 1224 1067 504 1042 b 1043 410 504 286 1007 492 b 665 328 1088 308 814 304 b 35 40 264 393 35 263 b 228 -181 35 -114 117 -181 b 794 0 511 -181 450 -33 b 1447 315 992 19 1447 -10 b 872 576 1447 731 913 492 b 1269 639 813 703 1196 681 z "},"":{"ha":1518,"x_min":0,"x_max":0,"o":"m 1386 972 l 1165 972 b 1103 561 1031 972 1033 699 b 1058 115 1207 356 1156 115 b 957 689 964 115 904 275 l 993 972 l 583 972 b 122 760 397 957 224 888 b 182 346 -8 594 24 346 b 451 785 458 346 353 785 b 503 692 493 785 510 732 b 488 501 493 629 488 563 b 988 -12 488 108 661 -12 b 1476 501 1303 -12 1476 108 b 1386 972 1476 679 1446 871 z "},"":{"ha":1382,"x_min":0,"x_max":0,"o":"m 1115 0 l 1347 972 l 1024 972 b 1008 949 1008 972 1006 963 b 990 389 1039 675 1022 518 b 847 413 958 296 853 326 l 846 408 b 765 972 860 722 982 972 l 429 972 b 115 760 325 972 210 878 b 175 346 -15 594 17 346 b 444 785 451 346 346 785 b 496 692 475 785 483 738 l 661 0 z "},"":{"ha":1565,"x_min":0,"x_max":0,"o":"m 438 0 b 783 233 661 0 732 233 b 1140 0 835 233 893 0 b 1531 972 1367 0 1531 39 l 1194 972 b 1111 469 983 972 1094 732 b 1051 340 1117 382 1086 340 b 954 875 808 340 954 731 l 611 875 b 535 333 611 736 733 333 b 456 456 485 333 451 369 b 371 972 471 732 582 972 l 35 972 b 438 0 35 39 185 0 z "},"":{"ha":1149,"x_min":0,"x_max":0,"o":"m 792 326 b 1107 972 792 536 1107 543 l 717 972 b 700 961 700 972 697 967 b 588 506 765 817 688 506 b 501 610 538 506 506 543 b 433 972 496 736 678 972 l 42 972 b 393 335 42 557 393 506 b 339 0 393 221 339 233 l 840 0 b 792 326 840 256 792 233 z "},"":{"ha":1217,"x_min":0,"x_max":0,"o":"m 42 90 l 42 -168 b 425 -117 115 -201 297 -143 b 949 -278 744 -51 699 -278 b 1175 -62 1093 -278 1175 -217 b 722 222 1175 192 963 256 b 310 164 536 196 310 36 b 911 868 310 386 911 104 l 911 985 l 42 985 l 42 815 b 579 710 42 392 579 929 b 42 90 579 529 42 596 z "},"":{"ha":1749,"x_min":0,"x_max":0,"o":"m 357 232 b 576 -11 193 60 447 -11 b 826 133 710 -11 826 18 b 864 713 826 224 663 713 b 864 193 965 713 958 508 l 1161 193 b 1144 301 1158 222 1151 260 l 1132 374 b 1194 694 1108 526 1093 694 b 1233 325 1322 694 1274 500 b 1499 -290 1117 -124 1306 -290 b 1707 -122 1624 -290 1707 -233 b 1579 281 1707 103 1593 -3 l 1579 972 b 1431 992 1556 986 1499 992 b 1026 731 1228 992 1103 882 b 689 972 958 868 856 972 l 517 972 b 115 778 322 965 188 868 b 181 460 -43 581 90 460 b 396 785 379 460 307 785 b 422 756 408 785 419 779 b 357 232 425 529 433 313 z "},"":{"ha":1533,"x_min":0,"x_max":0,"o":"m 1176 326 b 1492 972 1176 536 1492 543 l 1101 972 b 1085 961 1085 972 1082 967 b 972 506 1150 817 1072 506 b 886 610 922 506 890 543 b 818 972 881 736 1063 972 l 426 972 b 117 760 338 965 203 890 b 176 346 0 585 18 346 b 393 778 453 346 328 751 b 497 692 443 799 472 735 b 778 335 600 517 778 456 b 724 0 778 221 724 233 l 1225 0 b 1176 326 1225 256 1176 233 z "},"":{"ha":922,"x_min":0,"x_max":0,"o":"m 339 213 b 188 271 217 213 188 240 b 339 325 188 297 217 325 b 490 271 460 325 490 297 b 339 213 490 240 460 213 z m 881 414 b 106 696 881 735 544 696 l 106 449 b 576 426 150 449 576 539 b 318 413 576 364 492 413 b 35 178 161 413 40 361 b 338 -14 31 46 117 -14 b 567 146 596 -12 504 146 b 694 0 635 146 465 0 l 881 0 z "},"":{"ha":1236,"x_min":0,"x_max":0,"o":"m 350 0 b 619 167 524 0 579 167 b 897 0 660 167 704 0 b 1201 694 1074 0 1201 28 l 940 694 b 875 335 775 694 861 522 b 828 243 879 272 856 243 b 753 625 639 243 753 522 l 485 625 b 425 238 485 525 581 238 b 364 325 386 238 360 264 b 297 694 375 522 463 694 l 35 694 b 350 0 35 28 153 0 z "}}}
